<svg xmlns="http://www.w3.org/2000/svg" viewBox="0 0 196.93 127.24"><defs><style>.cls-1{fill:#b4d88b;}.cls-2{fill:#00ae9e;}</style></defs><title>Asset 1</title><g id="Layer_2" data-name="Layer 2"><g id="Layer_1-2" data-name="Layer 1"><path class="cls-1" d="M44.1,127.24c-11.54,0-20-2.39-24.38-7.21a10.32,10.32,0,0,1-2.06-11.25c2.68-6.52,10.73-11.05,20.51-11.54,6.82-.34,13.94-1,19.47-4.35a5.78,5.78,0,0,0,2.95-3.51,5.54,5.54,0,0,0-1.2-4.24c-2-2.86-7.26-4.36-12.39-1.79a1.5,1.5,0,0,1-1.34-2.68c6.67-3.33,13.48-1.21,16.21,2.78A8.38,8.38,0,0,1,63.52,90a8.72,8.72,0,0,1-4.31,5.44c-6.14,3.76-13.69,4.43-20.89,4.78-9.8.49-16,5.21-17.88,9.68a7.33,7.33,0,0,0,1.5,8.08c6.65,7.27,28.91,10.32,71.43-2.91,12.68-3.95,27-3.21,34,1.74,2.61,1.84,4,4.19,4.16,6.81a1.5,1.5,0,1,1-3,.13c-.07-1.68-1-3.18-2.89-4.48-6.24-4.39-19.75-5-31.42-1.33-19.84,6.17-37,9.28-50.15,9.28Z"/><path class="cls-2" d="M75.67,13.7A8.68,8.68,0,0,0,69,10.55c-6.57,0-10.93,5-10.93,11.38C58,28.73,62.39,33.77,69,33.77c2.56,0,5-1.17,7.15-3.87l4.68,3.33c-2.88,4-7.2,5.67-11.88,5.67-9.81,0-16.83-6.66-16.83-16.6,0-10.21,7-16.87,16.83-16.87a13.84,13.84,0,0,1,11.16,5Z"/><path class="cls-2" d="M81.93,6.23H93c6.12,0,11.88,2,11.88,9.13,0,4.59-2.66,8-7.38,8.64L106,38.09H99.11l-7.38-13.5H87.6v13.5H81.93ZM92,19.73c3.19,0,6.93-.27,6.93-4.41,0-3.78-3.51-4.23-6.43-4.23H87.6v8.64Z"/><path class="cls-2" d="M121.48,6.23h4.91l13.72,31.86h-6.48l-3-7.29H116.84L114,38.09h-6.34Zm7.2,19.71-4.91-13-5,13Z"/><path class="cls-2" d="M141.86,6.23h20.56v5.13H147.53v8.37h14v5.13h-14V38.09h-5.67Z"/><path class="cls-2" d="M174.8,11.36H165V6.23h25.2v5.13h-9.76V38.09H174.8Z"/><path class="cls-2" d="M66.29,64.47l-13.74-21h10l7.75,13.69L78.53,43.5h9.56l-13.74,21v15.6H66.29Z"/><path class="cls-2" d="M94.54,43.5h6.66l15.91,36.57H108l-3.15-7.75H90.67l-3,7.75H78.74Zm3.1,10.64L93.2,65.5h8.94Z"/><path class="cls-2" d="M119.8,43.5H134c7.49,0,13.79,2.58,13.79,11.1,0,5.11-2.74,9.09-7.9,10l9.3,15.44h-9.66l-7.64-14.62h-4V80.06H119.8Zm8.06,15.13h4.75c2.94,0,6.77-.1,6.77-4.08,0-3.67-3.31-4.24-6.25-4.24h-5.27Z"/><path class="cls-2" d="M152.28,43.5h11l15.55,25.41h.1V43.5h8.06V80.06H176.41l-16-26h-.1v26h-8.06Z"/><path class="cls-2" d="M41.75,93.47a8,8,0,0,0-6.2-2.92c-6.08,0-10.12,4.66-10.12,10.54,0,6.29,4,11,10.12,11a8.29,8.29,0,0,0,6.62-3.58l4.33,3.08a13,13,0,0,1-11,5.25c-9.08,0-15.57-6.16-15.57-15.37,0-9.45,6.5-15.62,15.57-15.62a12.81,12.81,0,0,1,10.33,4.66Z"/><path class="cls-2" d="M61.53,85.81c9.2-.17,15.7,6,15.7,15.45,0,9.2-6.5,15.37-15.7,15.53-9.08,0-15.57-6.16-15.57-15.37C46,92,52.45,85.81,61.53,85.81Zm0,26.23c6.12,0,10.16-4.66,10.16-11,0-5.87-4-10.54-10.16-10.54s-10.12,4.66-10.12,10.54C51.45,107.38,55.49,112,61.57,112Z"/><path class="cls-2" d="M103.34,105.21c0,7.12-5.12,11.58-11.87,11.58s-11.87-4.46-11.87-11.58V86.56h5.25V105c0,2.92,1.58,6.75,6.62,6.75S98.1,108,98.1,105V86.56h5.25Z"/><path class="cls-2" d="M106.47,86.56h7l14.28,21.9.08.08h-.08l.08-.08V86.56H133V116h-6.66L111.8,93.43h-.08V116h-5.25Z"/><path class="cls-2" d="M156.52,93.47a8,8,0,0,0-6.2-2.92c-6.08,0-10.12,4.66-10.12,10.54,0,6.29,4,11,10.12,11a8.28,8.28,0,0,0,6.62-3.58l4.33,3.08a13,13,0,0,1-11,5.25c-9.08,0-15.57-6.16-15.57-15.37,0-9.45,6.5-15.62,15.57-15.62a12.82,12.82,0,0,1,10.33,4.66Z"/><path class="cls-2" d="M163.86,86.56h5.25V116h-5.25Z"/><path class="cls-2" d="M172.23,86.56h5.25v24.74H190V116H172.23Z"/><path class="cls-1" d="M25.09,37.74c1.47-.15,3-.15,4.49-.31C33.5,28.94,37.9,20.58,42,12.27A4.59,4.59,0,0,1,40.9,7.9c.73-3,3.09-4.62,6.14-3.84s5,3.26,4.21,6.6c-.49,2-4.34,4.43-6.26,3.28-1.4,1.49-10.73,20.32-12,23.55,2.2.56,10.26,2.61,9.26,6.18,9.25,4.59,17.93,11,15.24,21.92C55,75.51,46.52,80.87,37.36,83.28,31,84.95,26.66,86.09,20.19,84.45,8.95,81.58,1.06,76.16.12,63.66A22.59,22.59,0,0,1,.46,56.5C3.31,45,11.8,40.55,22.1,38.29Zm.42,11.44a1.46,1.46,0,0,1-1.16-1.09,4.5,4.5,0,0,1,.37-1.49c-1.83.59-11.4,15.68-11.4,15.68A53.25,53.25,0,0,0,10,71.7s-2.4.7-2.72-1.62a5.87,5.87,0,0,1,.25-2c1.68-6.82,11.8-22,15.19-23.67a3.45,3.45,0,0,1,2.81.19,15.42,15.42,0,0,0,2.63-4.34l-2.5.15s-2.39.2-3.05.28-2.17.37-2.72.49c-7.7,2.26-13.6,7.21-15.59,15.27a7.38,7.38,0,0,0-.18,2.33c2.84-3.1,11.06-17.33,17.3-16.94.54,0,.95,1.06.73,1.24S20,44.21,19,44.89C14.24,48.55,6.42,58.68,4.95,64.62a6.81,6.81,0,0,0,0,1.58l-.7.74c1.56,4.75,4,8.93,8.19,11.57a12,12,0,0,1,.15-4.31c.77-3.1,6.17-17.43,10.73-21.91a10.4,10.4,0,0,0,2.29-3ZM22.75,82.46c-.7-.31-2.23-1-2-2a3,3,0,0,1,.49-.93,6.35,6.35,0,0,1,2.66.28c4,.22,20.55-7.49,23.75-11.49A1.48,1.48,0,0,1,50,68.19C48.08,74,31.28,81.6,24.13,82.68l0,.13c6.32.16,8.25-.27,14.11-2.47l0-.12c5.16-2.5,14.42-8.45,15.89-14.4a8.29,8.29,0,0,0-.12-5.3C47.17,63,43,63.38,35.87,63l-.12.49c-4,.56-9.32,2-12.62,4.3-.64.5-1.77,1.39-2.63,1.18a.94.94,0,0,1-.73-1.24c2.11-2.76,7.42-4.3,10.76-5.17l0-.12c-3.16-.66-7.06-3.51-7.64-3.79l-.52.53s-5.81,11.43-7.12,16.76a32.11,32.11,0,0,0-.46,3.44l-.34.31C15.94,81.12,19,81.9,21,82.4a4,4,0,0,0,1.77.19ZM42.9,66.64c-3.05,2.06-20.38,8.91-23.44,8.66-.76-.06-2.78-1.37-2.54-2.36s1.74-1.27,2.6-1.05a2.52,2.52,0,0,1,1.25.71c5.9-1.27,15.25-4.95,20.56-7.55a6.67,6.67,0,0,1,3.57-.8c.12,0,1,.33-2,2.39M26.4,53l-1.62,2.36c-.21.34.58.81.8,1,1.44,1,2.9,3,5.83,3.72,5.13,1.3,13.26,1,20-.85a10.13,10.13,0,0,0,2.87-.59c-.18-1.36-.92-2.08-1.4-3.26C50,48.54,41.43,45.71,34.71,44c-1.59-.4-3.18-.28-4.8-.56-.52,1.05-1.57,2.38-1.8,3.1s.43.37.43.37a4.36,4.36,0,0,1,4.22-1.3c.37.09.92.5.79,1-.24,1-1.47,1.21-2.2,1.55-1.43.56-2.26,1.8-3.18,2.88,1.41.62,2,2,3.57,2.36,4.4,1.12,12.74-1.63,18.24-1.29l0,.65c-4.12,2.51-14.48,4-19.12,2.78A10,10,0,0,1,26.4,53M38.53,42.74l.09-.37a12.49,12.49,0,0,0-2.9-1.4c-2.44-.62-4.12-1.71-5.07,1.08,2.63-.65,5.26.28,7.88.69M43,8.18c-.21.87.21,2.29,1.19,2.54l.24.06c.4-.56,1-2.51,1.47-2.79.15-.62-.21-.71-.7-.84a1.7,1.7,0,0,0-2.2,1m-7.5,41.44c-.85-.22-1.93-1.15-1.68-2.14.34-1.36,4-.43,4.86-.21.61.15,3.82.84,3.7,1.34-.31,1.24-5.78,1.3-6.87,1"/><path class="cls-1" d="M25.53,41.53c.09-.82-4.94-33.13-5.75-38.16C18.92-2,15.65,0,15.18,2.8a6.45,6.45,0,0,0,.42,3.28s.47.23.68-.11c.44-.69.55-2.72,1.3-2.4,1.37.73.08,9.44.08,9.44L22,41.92s2.38,1,3.55-.39"/><path class="cls-1" d="M26.22,39.33c.63-9.33,1.16-14.19,2.05-23.42a4.59,4.59,0,0,1-2.61-3.68c-.38-3,1.24-5.41,4.37-5.78s5.87,1.24,6.29,4.67c.25,2-2.47,5.69-4.68,5.3-.78,1.89-2.27,19.79-2.35,23.27,0,0-2,.77-3.07-.35m1.53-27.61c.11.89,1,2.07,2,1.95l.25,0c.17-.66,0-2.71.38-3.13-.08-.63-.45-.59-1-.53-.88.1-1.82.73-1.69,1.74"/><path class="cls-2" d="M196.93,113.58a2.79,2.79,0,1,1-2.76-2.72A2.74,2.74,0,0,1,196.93,113.58Zm-4.88,0a2.11,2.11,0,0,0,2.12,2.17,2.08,2.08,0,0,0,2.07-2.15,2.1,2.1,0,1,0-4.19,0Zm1.67,1.41h-.63v-2.71a7.29,7.29,0,0,1,1-.08,1.44,1.44,0,0,1,.93.21.68.68,0,0,1,.28.58.7.7,0,0,1-.56.65v0c.26.08.4.3.48.66a2.43,2.43,0,0,0,.2.66h-.66a2.13,2.13,0,0,1-.21-.66c-.05-.28-.22-.42-.56-.42h-.3Zm0-1.52h.3c.35,0,.63-.12.63-.4s-.18-.41-.58-.41a1.5,1.5,0,0,0-.35,0Z"/></g></g></svg>