<?xml version="1.0" encoding="UTF-8"?><svg id="new" xmlns="http://www.w3.org/2000/svg" viewBox="0 0 64 64"><rect x="2.53" y="2.53" width="59.41" height="59.41" rx="8.78" ry="8.78" fill="#52682d"/><path d="M37.95,11.67c0,3.64-2.95,6.59-6.59,6.59s-6.59-2.95-6.59-6.59,2.95-6.59,6.59-6.59,6.59,2.95,6.59,6.59Z" fill="none" stroke="#fff" stroke-width="2"/><path d="M31.94,13.89c0,.32-.26.58-.58.58s-.58-.26-.58-.58.26-.58.58-.58.58.26.58.58Z" fill="#fff" stroke="#fff"/><path d="M31.94,10.1c0,.32-.26.58-.58.58s-.58-.26-.58-.58.26-.58.58-.58.58.26.58.58Z" fill="#fff" stroke="#fff"/><path d="M29.49,12.51c-.32,0-.58-.26-.58-.58s.26-.58.58-.58.58.26.58.58-.26.58-.58.58Z" fill="#fff" stroke="#fff"/><path d="M33.28,12.51c-.32,0-.58-.26-.58-.58s.26-.58.58-.58.58.26.58.58-.26.58-.58.58Z" fill="#fff" stroke="#fff"/><path d="M37.95,31.19c0,3.64-2.95,6.59-6.59,6.59s-6.59-2.95-6.59-6.59,2.95-6.59,6.59-6.59,6.59,2.95,6.59,6.59Z" fill="none" stroke="#fff" stroke-width="2"/><path d="M31.94,33.4c0,.32-.26.58-.58.58s-.58-.26-.58-.58.26-.58.58-.58.58.26.58.58Z" fill="#fff" stroke="#fff"/><path d="M31.94,29.61c0,.32-.26.58-.58.58s-.58-.26-.58-.58.26-.58.58-.58.58.26.58.58Z" fill="#fff" stroke="#fff"/><path d="M29.49,32.03c-.32,0-.58-.26-.58-.58s.26-.58.58-.58.58.26.58.58-.26.58-.58.58Z" fill="#fff" stroke="#fff"/><path d="M33.28,32.03c-.32,0-.58-.26-.58-.58s.26-.58.58-.58.58.26.58.58-.26.58-.58.58Z" fill="#fff" stroke="#fff"/><path d="M37.95,50.7c0,3.64-2.95,6.59-6.59,6.59s-6.59-2.95-6.59-6.59,2.95-6.59,6.59-6.59,6.59,2.95,6.59,6.59Z" fill="none" stroke="#fff" stroke-width="2"/><path d="M31.94,52.92c0,.32-.26.58-.58.58s-.58-.26-.58-.58.26-.58.58-.58.58.26.58.58Z" fill="#fff" stroke="#fff"/><path d="M31.94,49.13c0,.32-.26.58-.58.58s-.58-.26-.58-.58.26-.58.58-.58.58.26.58.58Z" fill="#fff" stroke="#fff"/><path d="M29.49,51.54c-.32,0-.58-.26-.58-.58s.26-.58.58-.58.58.26.58.58-.26.58-.58.58Z" fill="#fff" stroke="#fff"/><path d="M33.28,51.54c-.32,0-.58-.26-.58-.58s.26-.58.58-.58.58.26.58.58-.26.58-.58.58Z" fill="#fff" stroke="#fff"/></svg>