<?xml version="1.0" encoding="UTF-8"?>
<svg id="v" data-name="new" xmlns="http://www.w3.org/2000/svg" viewBox="0 0 64 64">
  <defs>
    <style>
      .w {
        fill: #52682d;
      }

      .x {
        fill: #fff;
      }

      .y {
        fill: none;
        stroke: #fff;
        stroke-width: 2px;
      }
    </style>
  </defs>
  <rect class="w" x="2.53" y="2.53" width="59.41" height="59.41" rx="8.78" ry="8.78"/>
  <g>
    <path class="y" d="M54.37,32c0,12.36-10.02,22.37-22.37,22.37s-22.37-10.02-22.37-22.37S19.64,9.63,32,9.63s22.37,10.02,22.37,22.37Z"/>
    <path class="x" d="M33.97,38.5c0,1.09-.88,1.97-1.97,1.97s-1.97-.88-1.97-1.97.88-1.97,1.97-1.97,1.97.88,1.97,1.97Z"/>
    <path class="x" d="M33.97,27.68c0,1.09-.88,1.97-1.97,1.97s-1.97-.88-1.97-1.97.88-1.97,1.97-1.97,1.97.88,1.97,1.97Z"/>
    <path class="x" d="M26.69,34.85c-1.09,0-1.97-.88-1.97-1.97s.88-1.97,1.97-1.97,1.97.88,1.97,1.97-.88,1.97-1.97,1.97Z"/>
    <path class="x" d="M37.51,34.85c-1.09,0-1.97-.88-1.97-1.97s.88-1.97,1.97-1.97,1.97.88,1.97,1.97-.88,1.97-1.97,1.97Z"/>
  </g>
</svg>