<?xml version="1.0" encoding="UTF-8"?>
<svg id="v" data-name="new" xmlns="http://www.w3.org/2000/svg" viewBox="0 0 64 64">
  <defs>
    <style>
      .w {
        fill: #52682d;
      }

      .x {
        fill: none;
        stroke: #fff;
        stroke-width: 1.77px;
      }

      .y {
        fill: #fff;
        fill-rule: evenodd;
      }
    </style>
  </defs>
  <rect class="w" x="2.53" y="2.53" width="59.41" height="59.41" rx="8.78" ry="8.78"/>
  <g>
    <path class="y" d="M14.66,17.11c-.21-.37-.41-.73-.6-1.09h0c-1.08-1.98-2.3-3.91-1.21-6.07.38-.78,1.08-1.5,1.98-1.86l.64-.24,1.47-.3,1.59-.06,1.59.06,1.47.3.64.24c.83.36,1.53,1.08,1.98,1.86,1.02,2.16-.19,4.09-1.28,6.07h0c-.45.84-.96,1.68-1.34,2.59-.51,1.14-.76,2.77.51,3.55.7.36,1.91.66,3.19.66s2.49-.3,3.19-.66c1.28-.78,1.08-2.41.51-3.55-.38-.9-.85-1.63-1.29-2.47l-.05-.11c-1.08-1.98-2.29-3.91-1.27-6.07.45-.78,1.15-1.5,2.04-1.86l.57-.24,1.47-.3,1.59-.06,1.59.06,1.47.3.64.24c.89.36,1.59,1.08,1.98,1.86,1.08,2.16-.13,4.09-1.21,6.07h0c-.45.84-.96,1.68-1.4,2.59-.51,1.14-.76,2.77.57,3.55.64.36,1.85.66,3.12.66,1.34,0,2.55-.3,3.19-.66,1.34-.78,1.08-2.41.57-3.55-.45-.9-.96-1.74-1.4-2.59h0c-1.08-1.98-2.3-3.91-1.21-6.07.38-.78,1.08-1.5,1.98-1.86l.64-.24,1.4-.3,1.66-.06,1.59.06,1.47.3.57.24c.89.36,1.59,1.08,2.04,1.86,1.02,2.16-.19,4.09-1.28,6.07h0c-.45.84-.96,1.68-1.34,2.59-.57,1.14-.76,2.77.51,3.55.64.36,1.91.66,3.19.66v1.68l-1.59-.06-1.47-.24-.64-.24c-.89-.36-1.59-1.08-1.98-1.87-1.08-2.22.13-4.15,1.28-6.07h-.06c.45-.84.96-1.74,1.4-2.59.51-1.14.76-2.77-.51-3.55-.7-.42-1.91-.66-3.19-.72-1.28.06-2.55.3-3.19.72-1.34.78-1.08,2.41-.51,3.55.38.84.89,1.74,1.34,2.59h0c1.08,1.92,2.3,3.85,1.21,6.07-.38.78-1.08,1.5-1.98,1.87l-.57.24-1.47.24-1.66.06-1.59-.06-1.47-.24-.57-.24c-.89-.36-1.59-1.08-1.98-1.87-1.08-2.22.13-4.15,1.21-6.07h0c.45-.84.96-1.74,1.34-2.59.57-1.14.76-2.77-.51-3.55-.64-.42-1.91-.66-3.19-.72-1.28.06-2.49.3-3.19.72-1.28.78-1.02,2.41-.51,3.55.45.84.96,1.74,1.34,2.59h0c1.08,1.92,2.36,3.85,1.28,6.07-.38.78-1.08,1.5-1.98,1.87l-.64.24-1.47.24-1.59.06-1.59-.06-1.47-.24-.64-.24c-.83-.36-1.59-1.08-1.98-1.87-1.08-2.22.19-4.15,1.28-6.07h0c.38-.84.89-1.74,1.34-2.59.51-1.14.77-2.77-.51-3.55-.7-.42-1.91-.66-3.19-.72-1.28.06-2.55.3-3.19.72-1.28.78-1.08,2.41-.51,3.55.38.84.89,1.74,1.34,2.59h0c1.08,1.92,2.3,3.85,1.28,6.07-.45.78-1.15,1.5-2.04,1.87l-.57.24-1.47.24-1.59.06v-1.68c1.28,0,2.49-.3,3.12-.66,1.34-.78,1.08-2.41.57-3.55-.25-.51-.53-1.01-.8-1.49"/>
    <path class="y" d="M14.8,22.64c-.57-1.14-.76-2.77.51-3.55.07-.04.14-.08.22-.12-.05-.15-.72-1.39-.78-1.58l-.1.02c-.89.36-1.44.96-1.82,1.74-1.08,2.16.13,4.09,1.21,6.07.45.84.96,1.68,1.4,2.59.51,1.14.76,2.77-.57,3.55-.64.36-1.85.66-3.12.66v1.69l1.59-.06,1.47-.24.57-.24c.89-.36,1.59-1.08,2.04-1.86,1.02-2.22-.19-4.15-1.28-6.07-.45-.84-.96-1.74-1.34-2.59Z"/>
    <path class="y" d="M29.76,25.1c-.38-.84-.89-1.74-1.34-2.59-.51-1.14-.76-2.77.51-3.55.05-.03.06.01.12-.02-.03-.27-.5-1.3-.76-1.66-.82.38-1.42,1-1.85,1.73-1.02,2.16.19,4.09,1.28,6.07.45.84.96,1.68,1.34,2.59.57,1.14.76,2.77-.51,3.55-.7.36-1.91.66-3.19.66s-2.49-.3-3.19-.66c-1.27-.78-1.02-2.41-.51-3.55.38-.9.89-1.74,1.34-2.59,1.08-1.98,2.3-3.91,1.28-6.07-.45-.78-1.15-1.5-1.98-1.86,0,0-.91,1.76-.8,1.82.05.03,1.96.94.8,3.53-.45.84-.96,1.74-1.34,2.59-1.08,1.92-2.36,3.85-1.27,6.07.38.78,1.15,1.5,1.98,1.86l.64.24,1.47.24,1.59.06,1.59-.06,1.47-.24.64-.24c.89-.36,1.59-1.08,1.98-1.86,1.08-2.22-.19-4.15-1.28-6.07Z"/>
    <path class="y" d="M33.96,16.67s-1.28-.25-1.82-.24c-.63.02-1.76.1-2.03.25.11.25.69,1.37.87,1.72.49-.1.58-.13,1.14-.16.34.02.67.05.99.09.04-.2.72-1.54.85-1.66Z"/>
    <path class="y" d="M43.34,25.1c-.45-.84-.96-1.74-1.34-2.59-.57-1.14-.83-2.77.51-3.55.07-.05.11.03.2-.02-.04-.09-.68-1.44-.91-1.76-.22.09-1.41,1.1-1.77,1.84-1.08,2.16.13,4.09,1.21,6.07.45.84.96,1.68,1.4,2.59.51,1.14.76,2.77-.57,3.55-.64.36-1.85.66-3.19.66s-2.49-.3-3.13-.66c-1.34-.78-1.08-2.41-.57-3.55.45-.9.96-1.74,1.4-2.59,1.08-1.98,2.3-3.91,1.21-6.07-.38-.78-.97-1.62-1.87-1.98,0,0-.92,1.8-.95,1.85.2.07.18.08.32.17,1.27.78,1.1,2.3.53,3.44-.38.84-.89,1.74-1.34,2.59-1.08,1.92-2.3,3.85-1.21,6.07.38.78,1.08,1.5,1.98,1.86l.57.24,1.47.24,1.59.06,1.66-.06,1.47-.24.57-.24c.89-.36,1.59-1.08,1.98-1.86,1.08-2.22-.13-4.15-1.21-6.07Z"/>
    <path class="y" d="M49.27,31.23c-1.28-.78-1.08-2.41-.51-3.55.38-.9.89-1.74,1.34-2.59,1.08-1.98,2.29-3.91,1.27-6.07-.45-.78-1.15-1.5-2.04-1.86h.04c-.01.09-.77,1.68-.73,1.7,1.28.78,1.26,2.51.75,3.65-.45.84-.96,1.74-1.4,2.59h.06c-1.15,1.92-2.36,3.85-1.28,6.07.38.78,1.08,1.5,1.98,1.86l.64.24,1.47.24,1.59.06v-1.69c-1.27,0-2.55-.3-3.19-.66Z"/>
    <path class="y" d="M47.63,16.5s-.48-.25-2.08-.27c-2.01.09-1.76.16-1.94.29-.07.05.71,1.5.86,1.83.41-.17.8-.17,1.27-.2.47.06.5.12.97.2.01-.07.5-1.16.91-1.84Z"/>
    <path class="y" d="M20.43,16.62s-.76-.2-2.01-.2c-1.03,0-1.88.23-1.88.23v.02s.81,1.5.85,1.65c.91-.3,1.67-.27,2.17.11.04-.22.8-1.61.87-1.81Z"/>
    <path class="y" d="M14.89,31.77c-.57-1.14-.76-2.77.51-3.55.06-.04.14-.08.22-.12-.05-.15-.72-1.39-.78-1.58l-.1.02c-.89.36-1.44.96-1.82,1.74-1.08,2.16.13,4.09,1.21,6.07.45.84.96,1.68,1.4,2.59.51,1.14.77,2.77-.57,3.55-.64.36-1.85.66-3.12.66v1.69l1.59-.06,1.47-.24.57-.24c.89-.36,1.59-1.08,2.04-1.86,1.02-2.22-.19-4.15-1.28-6.07-.45-.84-.96-1.74-1.34-2.59Z"/>
    <path class="y" d="M29.85,34.23c-.38-.84-.89-1.74-1.34-2.59-.51-1.14-.77-2.77.51-3.55.05-.03.06.01.12-.02-.03-.27-.5-1.3-.76-1.66-.82.38-1.43,1-1.85,1.73-1.02,2.16.19,4.09,1.28,6.07.45.84.96,1.68,1.34,2.59.57,1.14.76,2.77-.51,3.55-.7.36-1.91.66-3.19.66s-2.49-.3-3.19-.66c-1.27-.78-1.02-2.41-.51-3.55.38-.9.89-1.74,1.34-2.59,1.08-1.98,2.3-3.91,1.28-6.07-.45-.78-1.15-1.5-1.98-1.86,0,0-.91,1.76-.81,1.82.05.03,1.96.94.81,3.53-.45.84-.96,1.74-1.34,2.59-1.08,1.92-2.36,3.85-1.28,6.07.38.78,1.15,1.5,1.98,1.86l.64.24,1.47.24,1.59.06,1.59-.06,1.47-.24.64-.24c.89-.36,1.59-1.08,1.97-1.86,1.08-2.22-.19-4.15-1.27-6.07Z"/>
    <path class="y" d="M34.05,25.8s-1.28-.25-1.82-.24c-.63.02-1.76.1-2.03.25.11.25.69,1.37.87,1.72.49-.1.58-.13,1.14-.16.34.02.67.05.99.09.04-.2.72-1.54.85-1.66Z"/>
    <path class="y" d="M43.43,34.23c-.45-.84-.96-1.74-1.34-2.59-.57-1.14-.83-2.77.51-3.55.07-.05.11.03.2-.02-.04-.09-.68-1.44-.91-1.76-.22.09-1.41,1.1-1.77,1.84-1.08,2.16.13,4.09,1.21,6.07.45.84.96,1.68,1.4,2.59.51,1.14.76,2.77-.57,3.55-.64.36-1.85.66-3.19.66s-2.49-.3-3.12-.66c-1.34-.78-1.08-2.41-.57-3.55.45-.9.96-1.74,1.4-2.59,1.08-1.98,2.3-3.91,1.21-6.07-.38-.78-.97-1.62-1.87-1.98,0,0-.92,1.8-.95,1.85.2.07.18.08.32.17,1.27.78,1.1,2.3.53,3.44-.38.84-.89,1.74-1.34,2.59-1.08,1.92-2.3,3.85-1.21,6.07.38.78,1.08,1.5,1.98,1.86l.57.24,1.47.24,1.59.06,1.66-.06,1.47-.24.57-.24c.89-.36,1.59-1.08,1.98-1.86,1.08-2.22-.13-4.15-1.21-6.07Z"/>
    <path class="y" d="M49.36,40.36c-1.28-.78-1.08-2.41-.51-3.55.38-.9.89-1.74,1.34-2.59,1.08-1.98,2.29-3.91,1.28-6.07-.45-.78-1.15-1.5-2.04-1.86h.04c-.01.09-.77,1.68-.73,1.7,1.27.78,1.26,2.51.75,3.65-.45.84-.96,1.74-1.4,2.59h.06c-1.15,1.92-2.36,3.85-1.28,6.07.38.78,1.08,1.5,1.98,1.86l.64.24,1.47.24,1.59.06v-1.69c-1.28,0-2.55-.3-3.19-.66Z"/>
    <path class="y" d="M47.72,25.63s-.48-.25-2.08-.27c-2.01.09-1.76.16-1.94.29-.07.05.71,1.5.86,1.83.42-.17.8-.17,1.27-.2.47.06.5.12.97.2.01-.07.5-1.16.91-1.84Z"/>
    <path class="y" d="M20.52,25.75s-.76-.2-2.01-.2c-1.03,0-1.88.23-1.88.23v.02s.81,1.5.85,1.65c.91-.3,1.67-.27,2.17.11.03-.22.8-1.61.87-1.81Z"/>
  </g>
  <g>
    <rect class="x" x="9.4" y="45.41" width="44.82" height="11.15"/>
    <line class="x" x1="31.51" y1="48.54" x2="31.51" y2="56.17"/>
    <line class="x" x1="16.44" y1="52.65" x2="16.44" y2="55.78"/>
    <line class="x" x1="24.86" y1="52.65" x2="24.86" y2="55.78"/>
    <line class="x" x1="39.31" y1="52.65" x2="39.31" y2="55.78"/>
    <line class="x" x1="47.72" y1="52.65" x2="47.72" y2="55.78"/>
  </g>
</svg>