<?xml version="1.0" encoding="UTF-8"?>
<svg id="v" data-name="new" xmlns="http://www.w3.org/2000/svg" viewBox="0 0 64 64">
  <defs>
    <style>
      .w {
        stroke-dasharray: 2.36 2.36;
      }

      .w, .x, .y, .z, .aa {
        fill: none;
        stroke: #fff;
      }

      .x {
        stroke-dasharray: 2.32 2.32;
      }

      .ab {
        fill: #52682d;
      }

      .ac {
        fill: #fff;
      }

      .z {
        stroke-dasharray: 2.4 2.4;
      }

      .aa {
        stroke-width: 2px;
      }
    </style>
  </defs>
  <rect class="ab" x="2.53" y="2.53" width="59.41" height="59.41" rx="8.78" ry="8.78"/>
  <g>
    <line class="aa" x1="48.82" y1="31.17" x2="16.13" y2="31.17"/>
    <path class="ac" d="M48.42,31.17c-1.04,1.04-1.54,3.11-1.58,4.54,1.43-1.92,3.29-3.6,5.55-4.54-2.25-.9-4.03-2.68-5.55-4.54.12,1.54.5,3.4,1.58,4.54Z"/>
    <path class="ac" d="M16.53,31.17c1.04,1.04,1.54,3.11,1.58,4.54-1.43-1.92-3.29-3.6-5.55-4.54,2.25-.9,4.03-2.68,5.55-4.54-.12,1.54-.5,3.4-1.58,4.54Z"/>
  </g>
  <g>
    <line class="aa" x1="32.47" y1="16.01" x2="32.47" y2="46.33"/>
    <path class="ac" d="M32.47,16.41c1.04,1.04,3.11,1.54,4.54,1.58-1.92-1.43-3.6-3.29-4.54-5.55-.9,2.25-2.68,4.03-4.54,5.55,1.54-.12,3.4-.5,4.54-1.58Z"/>
    <path class="ac" d="M32.47,45.93c1.04-1.04,3.11-1.54,4.54-1.58-1.92,1.43-3.6,3.29-4.54,5.55-.9-2.25-2.68-4.03-4.54-5.55,1.54.12,3.4.5,4.54,1.58Z"/>
  </g>
  <g>
    <line class="y" x1="5.84" y1="11.49" x2="7.02" y2="11.49"/>
    <line class="w" x1="9.38" y1="11.49" x2="55.49" y2="11.49"/>
    <line class="y" x1="56.67" y1="11.49" x2="57.85" y2="11.49"/>
  </g>
  <g>
    <line class="y" x1="6.01" y1="52.03" x2="7.19" y2="52.03"/>
    <line class="z" x1="9.59" y1="52.03" x2="56.47" y2="52.03"/>
    <line class="y" x1="57.67" y1="52.03" x2="58.85" y2="52.03"/>
  </g>
  <g>
    <line class="y" x1="10.97" y1="57.19" x2="10.97" y2="56.01"/>
    <line class="x" x1="10.97" y1="53.68" x2="10.97" y2="8.38"/>
    <line class="y" x1="10.97" y1="7.21" x2="10.97" y2="6.03"/>
  </g>
  <g>
    <line class="y" x1="53.57" y1="57.19" x2="53.57" y2="56.01"/>
    <line class="x" x1="53.57" y1="53.68" x2="53.57" y2="8.38"/>
    <line class="y" x1="53.57" y1="7.21" x2="53.57" y2="6.03"/>
  </g>
</svg>