<?xml version="1.0" encoding="UTF-8"?>
<svg id="v" data-name="new" xmlns="http://www.w3.org/2000/svg" viewBox="0 0 64 64">
  <defs>
    <style>
      .w {
        fill: #52682d;
      }

      .x {
        stroke-linejoin: round;
      }

      .x, .y {
        fill: none;
        stroke: #fff;
        stroke-width: 2px;
      }

      .z {
        fill: #ffd7d7;
        stroke: #ffd7d7;
        stroke-width: .05px;
      }
    </style>
  </defs>
  <rect class="w" x="2.53" y="2.53" width="59.41" height="59.41" rx="8.78" ry="8.78"/>
  <g>
    <g>
      <path class="x" d="M32.06,58.16c-13.15,0-17.7-9.89-17.58-12.78"/>
      <path class="x" d="M49.64,45.39c0,2.96-4.66,12.79-17.59,12.79"/>
    </g>
    <g>
      <g>
        <path class="z" d="M45.93,40.76c-.24.89-.17,1.66-.04,2.21.13.55.34.84.34.84,0,0,.16-.24.36-.51.19-.27.42-.58.52-.74.35-.51.64-1.13.7-1.31l.83-2.98-1.89-.53-.83,3.03Z"/>
        <path class="z" d="M16.2,41.26c.24.87.63,1.48.97,1.9.33.42.61.64.61.64,0,0,.09-.28.16-.62.08-.34.15-.72.16-.92.08-.64.01-1.34-.02-1.53l-.83-3-1.89.53.85,3Z"/>
        <path class="y" d="M14.19,45.62c.27-.08,2.84-.91,2.38-5.84,0-1.04-2.11-5.83-2.93-13.29C15.87,12.41,24.54,5.89,31.83,5.57c6.13.48,16.31,6.84,18.54,20.91-.82,7.47-2.93,12.26-2.93,13.29-.46,4.94,2.1,5.77,2.38,5.84"/>
      </g>
      <g>
        <path class="z" d="M44.97,27.54c1.07,1.89,2.5,2.61,2.5,2.61,0,0-.14-1.37-.26-1.83-.14-.75-.45-1.55-.56-1.76-.63-1.11-1.29-2.22-2.05-3.3l-1.59,1.14c.7.98,1.35,2.05,1.97,3.14Z"/>
        <path class="x" d="M30.5,58.43c-3.23-3.4-7.62-12.88-9.5-17.25-1.09-2.53-3.98-9.64-2.92-13.32,1.37-4.74,8.69-12.51,13.92-12.81,5.23.3,12.55,8.07,13.91,12.81,1.06,3.68-1.84,10.79-2.92,13.32-1.88,4.37-6.27,13.85-9.5,17.25"/>
        <path class="z" d="M17.35,26.59c-1.1,1.97-.8,3.56-.8,3.56,0,0,1.03-.91,1.34-1.25.54-.53,1.04-1.19,1.17-1.38.61-1.08,1.25-2.15,1.94-3.12l-1.59-1.14c-.77,1.09-1.42,2.21-2.06,3.33Z"/>
      </g>
    </g>
    <path class="x" d="M21.52,43.63c2.8.47,6.62.86,11.63.86s6.06.06,8.8-.39"/>
  </g>
</svg>