<?xml version="1.0" encoding="UTF-8"?>
<svg id="v" data-name="new" xmlns="http://www.w3.org/2000/svg" viewBox="0 0 64 64">
  <defs>
    <style>
      .w {
        fill: none;
      }

      .w, .x {
        stroke: #fff;
        stroke-width: 1.29px;
      }

      .x {
        fill: #fff;
      }

      .y {
        fill: #52682d;
      }
    </style>
  </defs>
  <rect class="y" x="2.53" y="2.53" width="59.41" height="59.41" rx="8.78" ry="8.78"/>
  <g>
    <g>
      <path class="x" d="M15.24,56.74h4.48V20.37s-.95,8.03-4.48,8.95v27.42Z"/>
      <g>
        <path class="w" d="M10.81,16.64,10.63,13.16c0-3.26,2.03-5.9,4.54-5.9s4.54,2.64,4.54,5.9M14.79,19.06"/>
        <line class="w" x1="19.71" y1="13.16" x2="19.71" y2="22.01"/>
      </g>
    </g>
    <g>
      <path class="x" d="M31.29,56.74h4.48V20.37s-.95,8.03-4.48,8.95v27.42Z"/>
      <g>
        <path class="w" d="M26.86,16.64,26.68,13.16c0-3.26,2.03-5.9,4.54-5.9s4.54,2.64,4.54,5.9M30.83,19.06"/>
        <line class="w" x1="35.76" y1="13.16" x2="35.76" y2="22.01"/>
      </g>
    </g>
    <g>
      <path class="x" d="M47.34,56.74h4.48V20.37s-.95,8.03-4.48,8.95v27.42Z"/>
      <g>
        <path class="w" d="M42.91,16.64,42.73,13.16c0-3.26,2.03-5.9,4.54-5.9s4.54,2.64,4.54,5.9M46.88,19.06"/>
        <line class="w" x1="51.81" y1="13.16" x2="51.81" y2="22.01"/>
      </g>
    </g>
  </g>
</svg>