<?xml version="1.0" encoding="UTF-8"?><svg id="new" xmlns="http://www.w3.org/2000/svg" xmlns:xlink="http://www.w3.org/1999/xlink" viewBox="0 0 64 64"><defs><clipPath id="clippath"><rect x="3.49" y="5.39" width="57.5" height="59.41" rx="8.64" ry="8.64" fill="none"/></clipPath></defs><rect x="2.53" y="2.53" width="59.41" height="59.41" rx="8.78" ry="8.78" fill="#52682d"/><g id="ruffle"><g clip-path="url(#clippath)"><path d="M92.34,51.72v1.13c-1.73.02-3.45-.66-5.17-.34-.96.18-1.87.57-2.83.77-.93.2-1.87.34-2.81.5-1.78.31-3.51.37-5.32.28-.91-.05-1.82-.1-2.73-.09-.86.01-1.76.22-2.62.1,0,.03-.02.06-.06.07-.79.19-1.59.43-2.41.49-.49.03-1.12.13-1.58-.11-.14-.07-.31-.21-.36-.39-.05-.2.07-.3.17-.45.22-.21.21-.44-.03-.68-.13-.02-.27-.03-.4-.02-.21,0-.42,0-.63.01-.42.01-.84.02-1.26.03-.03,0-.05,0-.06-.03,0,.31-.02.67-.2.89-.21.25-.68.35-.96.45-.98.35-2,.6-3.03.76-3.61.56-7.23.11-10.85-.13-.04.02-.08.02-.11,0-.79-.05-1.59-.1-2.38-.12-.01.06-.03.12-.05.18-.23.79-1.11.68-1.76.75-1.13.11-2.27.2-3.4.26-1.13.07-2.27.11-3.41.14-.99.02-2.1.18-3.05-.16-.04-.01-.06-.05-.07-.09-.03-.4-.06-.81-.08-1.21-.64-.17-1.29-.36-1.95-.41-.01.45,0,.92-.05,1.36-.02.14-.05.28-.16.38-.21.19-.66.16-.91.19-.41.05-.83.1-1.25.15-1.74.21-3.5.53-5.25.38-1.64-.14-3.24-.59-4.81-1.08-.25-.08-.74-.13-.93-.34-.11-.12-.1-.3-.08-.46-.46.02-.9.1-1.34.26,0,.09-.03.17-.09.23-.21.21-.71.08-.97.09-.58,0-1.15.05-1.73.1-2.31.22-4.58.73-6.9.89-2.26.16-4.53,0-6.74-.47,0,0,0,0-.01,0-.78-.15-1.56-.29-2.34-.44-.4-.08-1.24-.11-1.5-.52-.24-.38.21-.71.47-.92.26-.21.55-.39.85-.53.09-.04.19-.08.29-.12.08-.03.16-.06.25-.08.25-.04.34-.21.27-.52-1.74.03-3.48-.66-5.22-.34-.96.18-1.87.57-2.83.77-.93.2-1.87.34-2.81.5-1.78.31-3.51.37-5.32.28-.91-.05-1.82-.1-2.73-.09-.88.01-1.81.23-2.68.09-.05,0-.07-.07-.06-.12.17-1.05,0-2.1-.07-3.15-.02-.26-.02-.51-.02-.76,0-.73.06-1.46.12-2.18.14-1.54,1.25-3.06,1.48-4.58.49-3.23,1.29-6.57.94-9.85h108.72c.12.75.25,1.49.39,2.24.46,2.63.99,5.23,1.57,7.83.33,1.47.54,2.97.66,4.46.1,1.24.01,2.54.18,3.78Z" fill="#fff" stroke="#000" stroke-miterlimit="10" stroke-width=".98"/><path d="M92.54,52.72c-.09-.33-.16-.67-.2-1.01-.17-1.24-.09-2.54-.18-3.78-.12-1.5-.33-3-.66-4.46-.58-2.6-1.11-5.2-1.57-7.83-.13-.75-.26-1.49-.39-2.24,0-.03-.01-.07-.02-.1,0-.04-.05-.07-.09-.07H-14.65c-1.42,0-2.86-.07-4.27,0-.06,0-.12,0-.18,0-.05,0-.1.04-.09.09,0,.02,0,.05,0,.07.36,3.28-.45,6.62-.94,9.85-.23,1.52-1.33,3.05-1.48,4.58-.06.73-.12,1.46-.12,2.18,0,.25,0,.51.02.76.07,1.05.24,2.1.07,3.15,0,.04.01.11.06.12.87.14,1.8-.07,2.68-.09.91-.01,1.82.04,2.73.09,1.81.09,3.53.03,5.32-.28.94-.16,1.88-.3,2.81-.5.96-.2,1.87-.59,2.83-.77,1.74-.32,3.47.37,5.22.34.07.31-.02.48-.27.52-.08.03-.17.05-.25.08-.1.04-.19.07-.29.12-.3.14-.59.32-.85.53-.25.21-.7.54-.47.92.26.41,1.1.44,1.5.52.78.15,1.56.29,2.34.44,0,0,0,0,.01,0,2.22.47,4.48.63,6.74.47,2.31-.17,4.59-.67,6.9-.89.57-.05,1.15-.09,1.73-.1.26,0,.76.12.97-.09.06-.06.08-.14.09-.23.43-.15.88-.24,1.34-.26-.02.16-.03.34.08.46.19.21.67.26.93.34,1.57.49,3.17.94,4.81,1.08,1.75.15,3.51-.17,5.25-.38.42-.05.83-.1,1.25-.15.26-.03.7,0,.91-.19.11-.1.14-.23.16-.38.06-.44.04-.92.05-1.36.66.05,1.31.24,1.95.41.03.4.06.81.08,1.21,0,.04.03.08.07.09.95.34,2.06.18,3.05.16,1.14-.02,2.27-.07,3.41-.14,1.13-.07,2.27-.15,3.4-.26.65-.06,1.53.04,1.76-.75.02-.06.03-.12.05-.18.79.02,1.59.06,2.38.12.03.03.07.03.11,0,3.62.25,7.24.7,10.85.13,1.03-.16,2.05-.41,3.03-.76.29-.1.75-.2.96-.45.18-.22.2-.57.2-.89.01.02.03.03.06.03.42,0,.84-.02,1.26-.03.21,0,.42-.01.63-.01.14-.01.27,0,.4.02.23.25.24.48.03.68-.1.15-.22.25-.17.45.04.17.21.31.36.39.46.23,1.09.14,1.58.11.82-.05,1.62-.29,2.41-.49.04,0,.06-.04.06-.07.86.12,1.76-.08,2.62-.1.91-.01,1.82.04,2.73.09,1.81.09,3.53.03,5.32-.28.94-.16,1.88-.3,2.81-.5.96-.2,1.87-.59,2.83-.77,1.72-.32,3.44.36,5.17.34.04,0,.08,0,.12,0,.06,0,.1-.06.09-.12ZM1.72,55.77c-.76-.14-1.52-.28-2.27-.43-.36-.07-.73-.12-1.08-.24-.7-.25.09-.87.37-1.06.29-.2.61-.34.94-.46.19-.07.42-.12.55-.3.14-.2.11-.44-.06-.57-.35-1.25-.29-2.61-.34-3.9-.04-1.06-.16-2.12-.3-3.17-.21-1.45-.48-2.95-.99-4.32-.36-.97-.81-1.83-1.05-2.86-.03-.12-.2-.07-.17.05.24,1.03.68,1.89,1.05,2.86.51,1.37.78,2.87.99,4.32.16,1.14.27,2.29.31,3.44.04,1.16.01,2.38.31,3.52-1.36.01-2.66-.37-4.01-.42-1.43-.04-2.75.59-4.14.88-1.6.33-3.26.67-4.89.78-1.41.09-2.83-.02-4.24-.08-.67-.03-1.33-.04-2-.02-.42.01-.84.05-1.27.09-.13.01-.26.04-.39.03-.35-.01-.47-.03-.43-.38.07-.73-.01-1.47-.08-2.2-.08-.91-.08-1.8-.01-2.7.22-2.86,1.62-5.67,2-8.51.18-1.33.51-2.68.56-4.02.02-.65.03-1.3-.01-1.95,0-.09-.06-.74-.14-.74.02,0,.05-.01.1-.01.1,0,.25.02.28.02h107.46c.2,0,.4,0,.6,0h0c.13.34.13.84.19,1.19.32,1.87.65,3.75,1.02,5.61.42,2.11,1,4.17,1.24,6.31.11.98.18,1.95.21,2.94.03,1.05.03,2.16.3,3.18-1.15.01-2.26-.25-3.4-.37-1.2-.13-2.17.15-3.31.48-1.25.37-2.55.56-3.83.78-1.36.23-2.69.41-4.07.39-1.22-.02-2.43-.13-3.65-.15-.59,0-1.18,0-1.76.05-.3.02-.62.09-.91.08-.5-.02-.44-.16-.42-.6.08-1.41-.22-2.81-.14-4.23.08-1.39.25-2.77.32-4.15.14-2.68-.05-5.32-.36-7.97-.01-.12-.19-.12-.18,0,.31,2.59.5,5.17.37,7.78-.07,1.45-.25,2.9-.33,4.35-.09,1.61.33,3.25.07,4.85,0,0,0,.01,0,.01-.87.21-1.72.45-2.61.49-.26.01-.52.03-.77,0-.17-.01-.39-.04-.54-.15-.29-.21-.09-.36.02-.6.12-.26.2-.56.04-.75.47-2.94.46-5.93.44-8.9-.02-2.47-.05-4.94-.07-7.41,0-.12-.18-.12-.18,0,.02,2.41.05,4.82.07,7.23.02,2.99.05,6-.42,8.97-.02,0-.04-.02-.06-.02-.33-.1-.75-.02-1.09-.01-.42.01-.84.02-1.26.03-.03,0-.05.01-.07.03,0-.07,0-.13,0-.18-.07-1.13-.4-2.24-.53-3.37-.13-1.13-.16-2.25-.14-3.38.02-1.26-.17-2.43-.35-3.67-.1-.68-.13-1.33-.07-2.01.05-.62.11-1.23.04-1.85-.01-.12-.19-.12-.18,0,.12,1.04-.14,2.08-.05,3.12.08,1.03.35,2.04.42,3.07.07,1.1-.01,2.21.04,3.31.05,1.02.17,2.03.36,3.03.1.56.24,1.11.29,1.67.02.23.02.45,0,.68-.05.53-.43.66-.85.82-.95.36-1.94.61-2.94.78-2.07.35-4.17.35-6.25.24-1.59-.08-3.18-.23-4.77-.34-.29-1.59-.56-3.18-.6-4.8-.05-1.71.27-3.29.75-4.91.77-2.61,1.53-5.21,1.91-7.92.02-.12-.16-.17-.17-.05-.4,2.83-1.22,5.53-2.01,8.26-.46,1.58-.72,3.13-.65,4.79.06,1.55.32,3.09.6,4.62-.77-.05-1.53-.09-2.3-.11.04-.28.05-.56.07-.83.05-.59.1-1.17.15-1.76.08-1.11.15-2.23.16-3.34.02-2.16-.17-4.31-.75-6.4-.18-.65-.34-1.28-.4-1.96-.05-.5-.05-1.01-.12-1.51-.1-.72-.42-1.4-.58-2.11-.03-.12-.2-.07-.17.05.1.48.26.94.42,1.41.19.58.2,1.2.25,1.81.11,1.56.67,3.02.91,4.56.51,3.26.23,6.6-.1,9.87-.04.41-.09.9-.55,1.02-.43.12-.94.11-1.38.15-.83.08-1.67.14-2.51.2-1.67.11-3.34.17-5.02.19-.37,0-.74.02-1.11,0-.21-.01-.5,0-.68-.1-.21-.11-.18-.31-.2-.54-.01-.22-.03-.43-.04-.65.04-.04.04-.11-.01-.14-.04-.59-.08-1.19-.12-1.78-.11-1.65-.22-3.3-.34-4.95-.25-3.27-.53-6.54-.71-9.82,0-.12-.19-.12-.18,0,.29,5.5.78,11,1.16,16.5-.64-.17-1.27-.35-1.93-.4.07-1.74.22-3.51.08-5.24-.08-.96-.33-1.86-.6-2.77-.28-.96-.53-1.94-.75-2.92-.22-.95-.41-1.91-.59-2.87-.1-.49-.19-.99-.28-1.48-.1-.55-.32-1.2-.16-1.76.03-.12-.14-.16-.18-.05-.18.64.08,1.39.19,2.03.16.84.32,1.69.49,2.53.33,1.62.72,3.23,1.18,4.82.25.87.47,1.74.53,2.65.05.84.02,1.68-.01,2.51-.03.84-.06,1.69-.09,2.53-.01.42-.02.84-.04,1.27-.01.25,0,.48-.27.6-.21.09-.58.07-.81.1-1.65.2-3.31.48-4.97.54-1.63.06-3.24-.28-4.8-.72-.38-.11-.76-.22-1.14-.34-.19-.06-.38-.12-.57-.18-.3-.1-.45-.16-.46-.52,0-.01,0-.03,0-.04,0-.02,0-.04,0-.07,0-.79.23-1.66.39-2.42.34-1.57.79-3.12,1.07-4.71.6-3.5.34-7.12.25-10.65,0-.12-.18-.12-.18,0,.08,3.43.34,6.94-.2,10.34-.27,1.71-.77,3.37-1.13,5.06-.16.77-.29,1.55-.36,2.33-.46.01-.91.1-1.35.25,0-.01,0-.02,0-.04.01-.27.02-.55.03-.83.02-.64.03-1.29.03-1.93.02-2.45-.07-4.9-.25-7.34-.1-1.34-.23-2.69-.4-4.02-.11-.86-.34-1.63-.32-2.51,0-.12-.18-.12-.18,0-.02.66.08,1.2.21,1.83.23,1.11.3,2.28.4,3.42.21,2.32.33,4.64.35,6.97.01,1.13,0,2.27-.02,3.4,0,.28-.02.55-.03.83-.02.46-.1.54-.54.54-.55,0-1.1.02-1.64.07-2.17.17-4.3.63-6.46.85-2.49.26-5,.14-7.46-.37" stroke="#000" stroke-miterlimit="10" stroke-width=".98"/><path d="M95.4,13.26s-.02-.07-.05-.08c-1.45-.67-2.91-1.02-4.48-1.12-1.96-.12-3.95-.17-5.9.01-1.98.18-3.96.53-5.93.83-2.12.33-4.25.66-6.37.98-.04,0-.06.05-.07.09,0,.07-.01.15-.02.23,0,0,0,0,0,.01-.66,1.73-2.87,1.58-4.34,1.49-1.57-.1-3.11-.41-4.57-1.02.01-.05.02-.1.03-.15.09-.37.18-.97-.33-1.05-.29-.04-.59.19-.85.28-.43.14-.88.13-1.32.05-.76-.14-1.47-.48-2.18-.75-.76-.29-1.53-.46-2.34-.53-1.83-.15-3.68-.21-5.51-.31-.49-.03-1.13-.23-1.26.4-.1.45-.09.94-.14,1.4-.01.12-.02.24-.03.37-.01-.01-.03-.02-.05-.03-1.11-.13-2.06-.62-2.92-1.34-.01,0-.02-.02-.04-.02-.02-.09-.05-.18-.07-.27-.21-.73-.84-.92-1.49-1.09-.91-.24-1.84-.41-2.78-.5-1.98-.2-3.99-.07-5.93.38-.03,0-.06.04-.06.07-.08.48-.17.97-.27,1.45-.49.58-1.13,1.06-1.91.87.04-.22.07-.43.11-.65,0-.05-.01-.1-.06-.12-2.47-.99-5.05-1.64-7.68-1.94-2.35-.27-4.72-.25-7.07.06-.76.1-1.68.28-1.84,1.19-.04.23-.03.47,0,.7-.12.03-.19.09-.3.14-.25.11-.53.11-.8.11-.48,0-.93-.05-1.35-.3-.02-.01-.04-.01-.05-.01,0-.09,0-.18,0-.27,0-.41-.01-.84-.48-.94-.39-.08-.84-.02-1.23-.02-.41,0-.83,0-1.24,0-1.66.01-3.31.05-4.97.1-.86.03-1.72.06-2.57.1-.41.02-.83.04-1.24.06-.3.02-.68-.02-.98.07-.11.04-.18.1-.24.18,0-.04-.03-.08-.09-.08-2.8.09-5.62,1.16-8.4.37h0c-.1-.26-.25-.51-.51-.62-.54-.21-1.32,0-1.87.05-3.97.41-7.93,1.16-11.88,1.77-.04,0-.06.05-.06.09-.16,1.63.07,3.23.32,4.84.26,1.74.41,3.45.43,5.21.02,1.65.04,3.3.25,4.94.19,1.53.49,3.04.77,4.55,0,.03.04.06.07.07h56.04c5.19,0,10.39,0,15.58,0,4.72,0,9.45,0,14.17,0h22.45s.09-.04.09-.09c-.09-1.58.72-3.27,1.28-4.69.62-1.59,1.31-3.15,1.83-4.78.41-1.31.64-2.69.97-4.03.55-2.24,1.15-4.47,1.77-6.69,0,0,0-.01,0-.02Z" fill="#fff" stroke="#000" stroke-miterlimit="10" stroke-width=".98"/><path d="M95.4,13.26s-.02-.07-.05-.08c-1.45-.67-2.91-1.02-4.48-1.12-1.96-.12-3.95-.17-5.9.01-1.98.18-3.96.53-5.93.83-2.12.33-4.25.66-6.37.98-.04,0-.06.05-.07.09,0,.07-.01.15-.02.23,0,0,0,0,0,.01-.66,1.73-2.87,1.58-4.34,1.49-1.57-.1-3.11-.41-4.57-1.02.01-.05.02-.1.03-.15.09-.37.18-.97-.33-1.05-.29-.04-.59.19-.85.28-.43.14-.88.13-1.32.05-.76-.14-1.47-.48-2.18-.75-.76-.29-1.53-.46-2.34-.53-1.83-.15-3.68-.21-5.51-.31-.49-.03-1.13-.23-1.26.4-.1.45-.09.94-.14,1.4-.01.12-.02.24-.03.37-.01-.01-.03-.02-.05-.03-1.11-.13-2.06-.62-2.92-1.34-.01,0-.02-.02-.04-.02-.02-.09-.05-.18-.07-.27-.21-.73-.84-.92-1.49-1.09-.91-.24-1.84-.41-2.78-.5-1.98-.2-3.99-.07-5.93.38-.03,0-.06.04-.06.07-.08.48-.17.97-.27,1.45-.49.58-1.13,1.06-1.91.87.04-.22.07-.43.11-.65,0-.05-.01-.1-.06-.12-2.47-.99-5.05-1.64-7.68-1.94-2.35-.27-4.72-.25-7.07.06-.76.1-1.68.28-1.84,1.19-.04.23-.03.47,0,.7-.12.03-.19.09-.3.14-.25.11-.53.11-.8.11-.48,0-.93-.05-1.35-.3-.02-.01-.04-.01-.05-.01,0-.09,0-.18,0-.27,0-.41-.01-.84-.48-.94-.39-.08-.84-.02-1.23-.02-.41,0-.83,0-1.24,0-1.66.01-3.31.05-4.97.1-.86.03-1.72.06-2.57.1-.41.02-.83.04-1.24.06-.3.02-.68-.02-.98.07-.11.04-.18.1-.24.18,0-.04-.03-.08-.09-.08-2.8.09-5.62,1.16-8.4.37h0c-.1-.26-.25-.51-.51-.62-.54-.21-1.32,0-1.87.05-3.97.41-7.93,1.16-11.88,1.77-.04,0-.06.05-.06.09-.16,1.63.07,3.23.32,4.84.26,1.74.41,3.45.43,5.21.02,1.65.04,3.3.25,4.94.19,1.53.49,3.04.77,4.55,0,.03.04.06.07.07,0,0,.15,0,.21,0,1.39.06,2.8,0,4.2,0,2.97,0,5.94,0,8.91,0H6.92c4.89,0,9.78,0,14.67,0h15.67c5.19,0,10.39,0,15.58,0,4.72,0,9.45,0,14.17,0h22.45s.09-.04.09-.09c-.09-1.58.72-3.27,1.28-4.69.62-1.59,1.31-3.15,1.83-4.78.41-1.31.64-2.69.97-4.03.55-2.24,1.15-4.47,1.77-6.69,0,0,0-.01,0-.02ZM1.35,27.72c-.65-2.65.62-6.06.53-8.81-.04-1.14,0-2.28.1-3.42.06-.69.13-1.38.21-2.07.03-.21.03-.44.08-.65.09-.39.3-.4.62-.42.35-.02.71-.04,1.06-.05,3.05-.14,6.09-.22,9.14-.24.41,0,.83,0,1.24,0,.28,0,.57.24.64.53.04.15,0,.36,0,.52,0,.73.01,1.47,0,2.2,0,1.28-.02,2.57-.04,3.85-.04,2.64-.08,5.28-.05,7.92,0,.12.18.12.18,0-.04-3.24.04-6.47.07-9.71.02-1.36.02-2.72,0-4.08.39.22.81.3,1.26.3.25,0,.52.01.76-.03.2-.04.34-.17.53-.23.03.19.08.37.12.55.13.59.27,1.17.41,1.75.63,2.47,1.4,4.91,2.09,7.37.49,1.74.9,3.5,1.3,5.26.03.12.2.07.17-.05-.41-1.84-.84-3.66-1.35-5.47-.65-2.3-1.36-4.59-1.96-6.9-.16-.61-.31-1.22-.44-1.84-.12-.55-.35-1.23-.11-1.77.27-.62,1-.72,1.59-.8.52-.07,1.04-.12,1.56-.16,4.44-.34,8.92.36,13.06,2.01-.84,5.02-1.69,10.02-2.96,14.96-.03.12.14.17.17.05,1.21-4.69,2.03-9.44,2.83-14.21.73.18,1.36-.19,1.87-.7-.22,1.04-.45,2.08-.64,3.12-.23,1.28-.41,2.57-.54,3.86-.27,2.83-.24,5.69-.21,8.53,0,.12.18.12.18,0-.03-2.97-.06-5.96.25-8.91.14-1.3.34-2.59.58-3.88.14-.73.28-1.45.43-2.18.06-.26.11-.53.17-.79,0,0,0,0,0,0,.02-.03.03-.06.02-.09.03-.13.06-.27.09-.4.07-.33.06-.87.38-1,.34-.15.8-.16,1.17-.21.41-.06.83-.11,1.24-.14.79-.06,1.59-.07,2.38-.03.84.05,1.68.15,2.5.31.64.13,1.57.21,2.09.66.36.3.4.76.47,1.21.06.38.12.75.18,1.13.12.73.25,1.45.37,2.18.24,1.38.47,2.76.62,4.15.3,2.83.11,5.63-.5,8.41-.03.12.15.17.18.05.44-2.03.7-4.09.65-6.17-.04-1.63-.25-3.25-.5-4.85-.15-.92-.31-1.83-.46-2.74-.13-.75-.19-1.56-.35-2.32.85.69,1.79,1.15,2.89,1.27.02,0,.03,0,.04,0-.03.31-.06.63-.09.94-.18,1.89-.37,3.79-.53,5.68-.11,1.21-.2,2.43-.15,3.65.06,1.38.25,2.76.41,4.14.01.12.19.12.18,0-.17-1.42-.37-2.85-.42-4.29-.05-1.33.08-2.66.2-3.98.17-1.79.34-3.59.51-5.38.04-.46.09-.92.13-1.37.04-.44,0-1.03.25-1.38.17-.23.19-.19.43-.18.12,0,.24.01.35.02.18,0,.35.02.53.03.44.02.89.05,1.33.07.86.05,1.71.09,2.57.14.88.05,1.77.07,2.62.29,1.31.33,2.58,1.22,3.97,1.11.3-.02.58-.11.85-.23.27-.12.19-.15.49.06.28.19.27.13.22.43-.02.11-.05.22-.08.33-.03.02-.04.07-.03.11,0,.02-.01.04-.01.06-.18.77-.25,1.55-.25,2.34-.01,1.71.21,3.42.37,5.12.12,1.25.25,2.5.26,3.76.02,1.38-.12,2.76-.29,4.13-.01.12.17.12.18,0,.2-1.62.34-3.24.27-4.88-.08-1.72-.28-3.44-.44-5.16-.17-1.78-.28-3.51.08-5.26,1.67.7,3.46,1,5.26,1.05,1.3.04,2.93-.04,3.67-1.27-.07,1.94.35,3.83.58,5.75.27,2.18.16,4.38.27,6.57,0,.12.19.12.18,0-.09-1.8-.02-3.61-.16-5.41-.13-1.77-.53-3.51-.67-5.29-.04-.46-.06-.92-.05-1.38,0-.13-.03-.41,0-.59,0-.01.01-.03.02-.04,0-.02,0-.03,0-.04,0,0,0,0,0-.01.13-.24.41-.21.64-.25.84-.13,1.67-.26,2.5-.39,1.82-.28,3.64-.56,5.46-.84,3.39-.52,6.79-.77,10.21-.43.71.07,1.42.2,2.11.41.27.08,1.52.46,1.52.59.01.18-.13.46-.17.63-.1.35-.19.7-.29,1.05-.59,2.17-1.17,4.34-1.67,6.54-.23,1.01-.43,2-.77,2.98-.4,1.17-.88,2.31-1.34,3.46-.46,1.15-.93,2.31-1.28,3.5-.12.44-.24.88-.29,1.33,0,.08-.07.6.03.6-.1.03-.35-.01-.41-.01h-11.37c-5.75,0-11.49,0-17.24,0h-20.89c-7.2,0-14.4,0-21.6,0-6.31,0-12.62,0-18.94,0-4.43,0-8.87,0-13.3,0h-3.49c-.23,0-.81,0-.83,0-.02-.05-.04-.1-.07-.16-.16-.37-.17-.92-.24-1.32-.14-.78-.28-1.55-.4-2.33-.27-1.89-.31-3.77-.34-5.67-.02-1.73-.18-3.43-.43-5.14-.15-.98-.3-1.96-.35-2.96-.02-.42-.1-.96,0-1.38.08-.36.09-.33.43-.44.21-.07.47-.07.68-.1,1.74-.27,3.49-.54,5.24-.81,1.85-.29,3.71-.61,5.57-.8.47-.05,1.51-.32,1.9.1.49.52.49,1.62.51,2.28.11,3.79,0,7.6-.18,11.39,0,.12.18.12.18,0,.11-2.42.18-4.84.2-7.27,0-1.03,0-2.07,0-3.1,0-.91.03-1.85-.24-2.73,0-.02-.01-.05-.02-.07,2.76.74,5.56-.31,8.34-.4.01,0,.02,0,.03,0-.13.27-.11.66-.14.93-.09.74-.17,1.48-.22,2.22-.1,1.25-.14,2.51-.07,3.77" stroke="#000" stroke-miterlimit="10" stroke-width=".98"/></g><rect x="3.49" y="28.91" width="57.03" height="6.13" fill="#fff"/><circle cx="8.28" cy="32.06" r="2.71" fill="#52682d"/><circle cx="16.35" cy="32.06" r="2.71" fill="#52682d"/><circle cx="24.42" cy="32.06" r="2.71" fill="#52682d"/><circle cx="32.5" cy="32.06" r="2.71" fill="#52682d"/><circle cx="40.57" cy="32.06" r="2.71" fill="#52682d"/><circle cx="48.64" cy="32.06" r="2.71" fill="#52682d"/><circle cx="56.71" cy="32.06" r="2.71" fill="#52682d"/></g></svg>