<?xml version="1.0" encoding="UTF-8"?>
<svg id="v" data-name="new" xmlns="http://www.w3.org/2000/svg" viewBox="0 0 64 64">
  <defs>
    <style>
      .w {
        fill: #52682d;
      }

      .x {
        fill: #fff;
      }

      .x, .y {
        fill-rule: evenodd;
      }

      .y {
        fill: none;
        stroke: #fff;
        stroke-miterlimit: 10;
        stroke-width: 2px;
      }
    </style>
  </defs>
  <rect class="w" x="2.53" y="2.53" width="59.41" height="59.41" rx="8.78" ry="8.78"/>
  <g>
    <path class="x" d="M25.09,10.27h0c0-1.63,1.32-2.95,2.95-2.95h7.92c1.63,0,2.95,1.32,2.95,2.95h0c0,1.63-13.81,1.63-13.81,0Z"/>
    <path class="x" d="M40.52,56.67h-17.03c-1.07,0-1.93-.87-1.93-1.93h0c0-1.07,20.9-1.07,20.9,0h0c0,1.07-.87,1.93-1.93,1.93Z"/>
    <path class="y" d="M47.74,54.65h-31.49c-2.34,0-4.24-1.9-4.24-4.24L20.51,15.06c0-2.34,1.9-4.24,4.24-4.24h14.24c2.34,0,4.24,1.9,4.24,4.24l8.76,35.35c0,2.34-1.9,4.24-4.24,4.24Z"/>
    <g>
      <path class="x" d="M36.21,31.74c1.39-1.37,2.28-3.26,2.48-5.3v-.23c-.05-1.47-.84-2.73-1.96-3.36.51,2.35.19,4.74-.76,6.79-.36.77-.81,1.49-1.34,2.14l1.58-.04h0ZM23.62,26.63v.42c.08.36.16.73.28,1.09.49,1.58,1.37,2.9,2.48,3.87l.83-.02c1.07-.85,1.93-1.96,2.51-3.21.88-1.87,1.14-4.07.63-6.22l-1.07.03c.1.43.17.86.2,1.29-.61-.34-1.2-.75-1.74-1.25l-.67.02c-.38.01-.74.09-1.08.22.22.32.46.64.72.93.79.89,1.71,1.55,2.7,1.99-.06.38-.14.75-.25,1.11-1.17-.5-2.26-1.27-3.19-2.31-.33-.38-.64-.77-.9-1.19-.32.26-.6.58-.82.93.36.76.82,1.48,1.39,2.12.83.93,1.8,1.61,2.83,2.05-.19.33-.4.65-.63.94-1.08-.5-2.08-1.23-2.95-2.2-.45-.51-.84-1.05-1.17-1.62-.07.32-.1.66-.09,1.01h0ZM35.55,22.46c-.17-.02-.35-.03-.53-.03l-1.01.03c.58,2.42.28,4.9-.71,7.02-.41.87-.93,1.67-1.55,2.39l1.36-.04c.8-.77,1.46-1.69,1.93-2.7.94-2,1.18-4.38.51-6.66h0ZM32.94,22.49l-1.54.04c.5,2.34.19,4.73-.77,6.77-.45.97-1.05,1.86-1.78,2.64l1.31-.04c.93-.81,1.68-1.83,2.21-2.96.91-1.95,1.16-4.24.56-6.46h0Z"/>
      <path class="x" d="M26.65,41.23c-1.4,1.37-2.28,3.26-2.48,5.3v.23c.05,1.47.84,2.73,1.96,3.36-.51-2.35-.19-4.74.76-6.79.36-.77.81-1.49,1.34-2.14l-1.58.04h0ZM39.24,46.33v-.42c-.08-.36-.16-.73-.28-1.09-.49-1.58-1.37-2.9-2.48-3.87l-.83.02c-1.07.85-1.93,1.96-2.51,3.21-.88,1.87-1.14,4.07-.63,6.22l1.07-.03c-.1-.43-.17-.86-.2-1.29.61.34,1.2.75,1.74,1.25l.67-.02c.38-.01.74-.09,1.08-.22-.22-.32-.46-.64-.72-.93-.79-.89-1.71-1.55-2.7-1.99.06-.38.14-.75.25-1.11,1.17.5,2.26,1.27,3.19,2.31.33.38.64.77.9,1.19.32-.26.6-.58.82-.93-.36-.76-.82-1.48-1.39-2.12-.83-.93-1.8-1.61-2.84-2.05.19-.33.4-.65.63-.94,1.08.5,2.08,1.23,2.95,2.2.45.5.84,1.05,1.17,1.62.07-.32.1-.66.09-1.01h0ZM27.31,50.51c.17.02.35.03.53.03l1.01-.03c-.58-2.42-.28-4.9.71-7.02.41-.87.93-1.67,1.55-2.39l-1.36.04c-.8.77-1.46,1.69-1.93,2.7-.94,2-1.18,4.38-.51,6.66h0ZM29.92,50.48l1.54-.04c-.5-2.34-.19-4.73.77-6.77.45-.97,1.05-1.86,1.78-2.64l-1.31.04c-.93.81-1.68,1.83-2.21,2.96-.91,1.95-1.16,4.24-.56,6.46h0Z"/>
      <polygon class="x" points="26.61 33.11 26.8 40.12 36.25 39.85 36.06 32.85 26.61 33.11 26.61 33.11"/>
    </g>
  </g>
</svg>