<?xml version="1.0" encoding="UTF-8"?><svg id="svg-striaght" xmlns="http://www.w3.org/2000/svg" width="219.14" height="263.86" viewBox="0 0 219.14 263.86"><line x1="24.33" y1="250.26" x2="24.33" y2="50.57" fill="none" stroke="#52682d" stroke-miterlimit="10" stroke-width="2"/><rect x="19.46" y="249.51" width="9.75" height="1.5" fill="#52682d"/><rect x="19.46" y="49.82" width="9.75" height="1.5" fill="#52682d"/><line x1="48.91" y1="119.79" x2="162.9" y2="119.79" fill="none" stroke="#52682d" stroke-miterlimit="10" stroke-width="2"/><rect x="48.16" y="114.91" width="1.5" height="9.75" fill="#52682d"/><rect x="162.15" y="114.91" width="1.5" height="9.75" fill="#52682d"/><line x1="57.21" y1="78.63" x2="155.24" y2="78.63" fill="none" stroke="#52682d" stroke-miterlimit="10" stroke-width="2"/><rect x="56.46" y="73.76" width="1.5" height="9.75" fill="#52682d"/><rect x="154.49" y="73.76" width="1.5" height="9.75" fill="#52682d"/><line x1="173.95" y1="48.7" x2="173.95" y2="114.45" fill="none" stroke="#52682d" stroke-miterlimit="10" stroke-width="2"/><rect x="169.07" y="47.95" width="9.75" height="1.5" fill="#52682d"/><rect x="169.07" y="113.7" width="9.75" height="1.5" fill="#52682d"/><line x1="173.95" y1="119.51" x2="173.95" y2="258.92" fill="none" stroke="#52682d" stroke-miterlimit="10" stroke-width="2"/><rect x="169.07" y="118.76" width="9.75" height="1.5" fill="#52682d"/><rect x="169.07" y="258.17" width="9.75" height="1.5" fill="#52682d"/><line x1="82.9" y1="53.68" x2="126.25" y2="53.68" fill="none" stroke="#52682d" stroke-miterlimit="10" stroke-width="2"/><rect x="82.15" y="48.81" width="1.5" height="9.75" fill="#52682d"/><rect x="125.5" y="48.81" width="1.5" height="9.75" fill="#52682d"/><line x1="66.51" y1="39.62" x2="66.51" y2="69.7" fill="none" stroke="#52682d" stroke-miterlimit="10" stroke-width="2"/><rect x="61.63" y="38.87" width="9.75" height="1.5" fill="#52682d"/><rect x="61.63" y="68.95" width="9.75" height="1.5" fill="#52682d"/><g id="straight-2"><polyline points="42.61 247.43 42.61 260.59 167.33 260.59 167.33 247.43" fill="none" stroke="#010101" stroke-linecap="round" stroke-linejoin="round"/><path d="M40.46,115.76c.76,8.91,4.46,35.26,3.44,50.19-1.02,14.93-2.13,76.34-1.36,81.88" fill="none" stroke="#010101"/><path d="M169.48,115.76c-.76,8.91-4.46,35.26-3.44,50.19,1.02,14.93,2.12,76.34,1.36,81.88" fill="none" stroke="#010101"/><path d="M48.31,70.96c.52,15.63-.63,34.66-7.85,45.38" fill="none" stroke="#010101" stroke-linejoin="round"/><path d="M163.94,45.59s-8.16,50.38,5.54,70.75" fill="none" stroke="#010101" stroke-linejoin="round"/><path d="M73.61,36.59c0,21.33,6.06,38.71,30.7,38.71,26.86,0,31.27-17.71,31.27-38.37" fill="none" stroke="#010101" stroke-linejoin="round"/><path d="M73.62,36.59s6.06,6.92,30.98,6.92c22.75,0,31-6.92,31-6.92l28.19,10.1" fill="none" stroke="#010101" stroke-linejoin="round"/></g><text transform="translate(16.06 175.96) rotate(-90)" font-family="ArialMT, Arial" font-size="12" isolation="isolate"><tspan x="0" y="0">{{HEIGHT}} {{UNIT}}</tspan></text><g isolation="isolate"><text transform="translate(90.06 140.21)" font-family="ArialMT, Arial" font-size="12" isolation="isolate"><tspan x="0" y="0">{{BUST_STS}}sts</tspan></text></g><g isolation="isolate"><text transform="translate(82.65 154)" font-family="ArialMT, Arial" font-size="12" isolation="isolate"><tspan x="0" y="0">({{BUST_WIDTH}} {{UNIT}})</tspan></text></g><g isolation="isolate"><text transform="translate(90.06 96.72)" font-family="ArialMT, Arial" font-size="12" isolation="isolate"><tspan x="0" y="0">{{SHOULDER_STS}}sts</tspan></text></g><g isolation="isolate"><text transform="translate(82.65 110.51)" font-family="ArialMT, Arial" font-size="12" isolation="isolate"><tspan x="0" y="0">({{SHOULDER_WIDTH}} {{UNIT}})</tspan></text></g><g isolation="isolate"><text transform="translate(89.28 19.62)" font-family="ArialMT, Arial" font-size="12" isolation="isolate"><tspan x="0" y="0">{{NECK_STS}}sts</tspan></text></g><g isolation="isolate"><text transform="translate(87.19 32.68)" font-family="ArialMT, Arial" font-size="12" isolation="isolate"><tspan x="0" y="0">({{NECK_WIDTH}} {{UNIT}})</tspan></text></g><g isolation="isolate"><text transform="translate(29.56 51.94)" font-family="ArialMT, Arial" font-size="12" isolation="isolate"><tspan x="0" y="0">{{NECK_DEPTH_ROWS}} rows</tspan></text></g><g isolation="isolate"><text transform="translate(27.23 64.53)" font-family="ArialMT, Arial" font-size="12" isolation="isolate"><tspan x="0" y="0">({{NECK_DEPTH}} {{UNIT}})</tspan></text></g><g isolation="isolate"><text transform="translate(191.32 97.97) rotate(-90)" font-family="ArialMT, Arial" font-size="12" isolation="isolate"><tspan x="0" y="0">{{ARMHOLE_ROWS}} rows</tspan><tspan x="0" y="14.4">({{ARMHOLE_DEPTH}} {{UNIT}})</tspan></text></g><text transform="translate(84.84 200.51)" font-family="ArialMT, Arial" font-size="12"><tspan x="0" y="0">FRON</tspan><tspan x="34" y="0" letter-spacing="-.02em">T</tspan></text><g isolation="isolate"><text transform="translate(191.32 219.92) rotate(-90)" font-family="ArialMT, Arial" font-size="12" isolation="isolate"><tspan x="0" y="0">{{SIDE_LENGTH_ROWS}} rows</tspan><tspan x="0" y="14.4">({{SIDE_LENGTH}} {{UNIT}})</tspan></text></g><g id="BUST_STS" isolation="isolate"><text transform="translate(47.11 242.01)" font-family="ArialMT, Arial" font-size="12" isolation="isolate"><tspan x="0" y="0">{{HEM_ROWS}} rows</tspan><tspan x="0" y="14.4">({{HEM_INCHES}} {{UNIT}})</tspan></text></g><g id="BUST_LINE"><line x1="34.21" y1="258.86" x2="34.21" y2="234.74" fill="none" stroke="#52682f" stroke-miterlimit="10" stroke-width="2"/><rect x="29.33" y="258.11" width="9.75" height="1.5" fill="#52682f"/><rect x="29.33" y="233.99" width="9.75" height="1.5" fill="#52682f"/></g></svg>