<?xml version="1.0" encoding="UTF-8"?><svg id="length-fitted" xmlns="http://www.w3.org/2000/svg" viewBox="0 0 192.845593 299.526135"><g id="tunic"><path d="M34.109022,91.042276c1.731417,19.049952,10.251445,32.792238,6.234038,60.779821-4.194355,29.220304-22.811868,75.089059-22.811868,75.089059,25.101135,20.053589,141.731995,14.66748,156.831726,0" fill="none" stroke="#010101"/><path d="M163.29992,89.999867c-3.194484,19.5252-12.864623,46.748847-8.897454,74.178665,4.30443,29.76171,17.943417,45.717851,19.429329,62.309288" fill="none" stroke="#010101"/><path d="M38.99812,19.578467s8.2178,50.3086-5.5761,70.6504" fill="none" stroke="#010101" stroke-linejoin="round"/><path d="M157.68762,19.578467s-8.2178,50.3086,5.5762,70.6504" fill="none" stroke="#010101" stroke-linejoin="round"/><path d="M66.440028,9.455525c0,21.3335,6.0596,38.7051,30.7031,38.7051,26.8565,0,31.2715-17.7051,31.2715-38.3711" fill="none" stroke="#010101" stroke-linejoin="round"/><path d="M38.251528,19.227025l28.1885-9.7715s6.0596,6.9165,30.9756,6.9165c22.75,0,30.999-6.9165,30.999-6.9165l28.1894,10.1045" fill="none" stroke="#010101" stroke-linejoin="round"/></g></svg>