<?xml version="1.0" encoding="UTF-8"?>
<svg id="a" data-name="Layer 1" xmlns="http://www.w3.org/2000/svg" viewBox="0 0 640 640">
  <defs>
    <style>
      .b {
        fill: #52682d;
        stroke: #52682d;
        stroke-miterlimit: 10;
        stroke-width: 12px;
      }
    </style>
  </defs>
  <path class="b" d="M405.3,436.88c-18.61,25.64-34.44,53.14-51.87,79.56-3.5,5.3-18.52,29.19-22.3,31.23-9.1,4.91-8.45-9.26-8.18-14.35.67-12.87,3.21-27.46,4.9-40.4,15.74-121.07,36.19-241.62,52.65-362.59,1.44-10.56,3.13-21.19,3.53-31.82-26.58,9.88-54.85,15.93-83.42,14.44-22.63-1.18-45.13-8.86-66.88-14.45.13,10.62,1.52,21.27,2.84,31.82,14.96,119.48,34.95,238.48,51.28,357.79,2.18,15.94,6.56,37.32,6.98,52.78.22,8.23-6.56,9.92-12.05,4.44-12.01-11.99-26.08-37.52-36.83-52.39-13.79-19.08-28.83-37.3-42.09-56.75-1.36-.27-.86.35-1.19.89-3.45,5.57-6.25,11.2-9.98,16.77-13.98,20.88-28.94,39.19-40.08,62.18-2.74,5.64-6.3,17.54-9.17,21.72-3.98,5.8-9.35,2.63-10.99-3.38-2.18-8.01-1.39-28.37-1.03-37.46,1.09-27.71,5.6-56,7.57-83.71,1.49-20.96,1.49-42.06,3.34-62.99-11.51-9.39-25.18-16.17-38.56-22.57-4.8-2.3-17.66-6.45-20.64-9.56-4.72-4.91-1.42-10.99.63-16.4,2.32-6.13,5.72-12.4,8.21-18.56,17.21-42.65,32.57-89.35,51.94-130.63,16.79-35.8,48.2-76.15,93.26-66.68,29.23,6.15,52.04,15.99,83.38,14.07,21.71-1.33,40.06-9.34,60.49-13.63,31.84-6.69,59.71,12.55,76.46,37.99,23.37,35.49,36.67,83.03,52.32,122.71,7.19,18.24,17.88,38.5,23.68,56.63,2.03,6.35,3.52,12.36-3.02,16.53-7.46,4.76-20.16,8.35-28.83,13.03-3.8,2.05-25.4,15.14-26.16,17.76l.52,42.44c-.08,1.4.66,2.76.71,4.1,1.49,46.71-.68,93.4.67,140.04.23,8.1,2.21,18.23,2.02,25.98-.17,6.99-7.54,9.16-11.74,2.95-6.43-9.51-12.36-25.42-18.04-36.18-16.06-30.41-36.06-59.48-44.29-93.33ZM279.78,513.74l-59.36-415.92c-20.65,4.26-35.17,15.85-46.62,32.99-13.05,19.53-21.77,41.21-30.43,62.91-13.52,33.87-27.09,68.1-39.81,102.27-1.02,2.75-4.84,11.95-4.34,14.14,10.95,5.13,22.39,9.33,33.01,15.19,14.74,8.13,26.69,18.27,38.44,30.19,7.24,7.34,13.73,15.29,20.56,23.01-4.29-30.36-9.88-60.58-13.63-91.03-1.95-15.84-4.31-33.45-4.92-49.3-.23-5.94-2.51-28.61,7.97-24.44,6.37,2.53,4.05,14.04,4.42,19.6,4.18,62.57,17.93,123.63,24.88,185.83,21.13,32.19,46.93,61.07,68.13,93.19.53.8-.17,1.77,1.7,1.36ZM421.09,388.83c15.63-25.94,40.62-48.91,67.07-63.69,10.13-5.66,21.21-9.6,31.16-15.55l.48-1.27c-8.2-21.76-17.38-43.15-25.78-64.83-10.7-27.61-20.09-56.65-32.53-83.47-13.01-28.05-28.83-56.7-62.61-61.58l-60.83,417.36,35.13-55.12c8.47-14.38,20.79-28.06,29.13-42.25,4.48-7.63,3.77-18.81,5.17-27.77,3.92-25.01,11.12-49.26,16.71-73.89,6.94-30.54,12.17-59.85,16.12-90.96.4-3.16-.48-10.54,3.92-11.86,10.66-3.2,7.57,17.1,7.06,22.84-4.32,48.55-20.48,97.46-29.86,145.16-.29,1.47-.78,3.12-.94,4.56-.08.75-.61,2.48.6,2.31ZM143.12,505.51l46.1-71.61c8.15-15.86,6.8-25.67-3.67-39.81l-31.12-34.09-11.32,145.5ZM465.02,531.59l.72-97.15-3.11-74.44c-14.88,14.52-29,30.18-39.75,48.1-1.88,3.12-7.03,10.77-7.14,13.99-.37,10.33,8.32,32.17,12.8,42.01,10.09,22.18,24.44,43.25,34.77,65.44l1.73,2.04Z"/>
</svg>