<?xml version="1.0" encoding="UTF-8"?>
<svg id="a" data-name="Layer 1" xmlns="http://www.w3.org/2000/svg" viewBox="0 0 554.19 549.91">
  <defs>
    <style>
      .b {
        fill: #acc37e;
      }

      .c {
        fill: #5c254b;
      }

      .d {
        fill: #de9643;
      }

      .e {
        fill: #d36835;
      }

      .f {
        fill: #325b5d;
      }

      .g {
        fill: #ffffff
        ;
      }

      .h {
        fill: #769e5e;
      }

      .i {
        fill: #be352f;
      }

      .j {
        fill: #588450;
      }

      .k {
        fill: #8a1e1d;
      }

      .l {
        fill: #33355a;
      }

      .m {
        fill: #e7c677;
      }

      .n {
        fill: #2b4859;
      }
    </style>
  </defs>
  <circle class="g" cx="273.53" cy="277.81" r="267.33"/>
  <path class="k" d="M219.73,306.63s-45.04-55.62-58.83-126.36c-13.77-70.73-6.74-90-6.29-96.96.71-11.08-7.24-20.76-18.81-17.86-11.58,2.88-41.44,15.37-52.38,35.37-12.62,23.08,28.99,141.6,136.31,205.81Z"/>
  <path class="c" d="M235.35,325.77s-62.98-23.38-107.93-73.89c-44.95-50.53-48.49-69.47-51.46-75.28-4.72-9.29-15.76-13.3-23.73-5.44-7.97,7.88-26.11,32.24-25.38,53.61.86,24.68,91.13,100.47,208.49,101Z"/>
  <path class="l" d="M251.1,335.36s-60.01,7.07-116.37-11.16c-56.36-18.24-67.2-32.76-71.86-35.75-7.45-4.77-18.07-3.23-21.62,5.64-3.56,8.84-9.99,37.87-.46,52.46,17.14,26.24,113.5,35.56,210.3-11.19Z"/>
  <path class="n" d="M266.81,338.5s-45.68,38.08-105.43,51.72c-59.74,13.66-77.22,9.02-83.17,8.84-9.49-.29-17.38,6.71-14.37,16.46,3.02,9.75,9.71,34.71,33.7,44.36,25.53,10.26,125.74-44.94,169.26-121.38Z"/>
  <path class="f" d="M314.04,286.21s-19.73,65.21-74.02,117.2c-54.29,51.96-68.12,51.09-74.75,54.84-10.57,6-15.68,26.02-3.13,35.35,10.43,7.76,29.53,23.01,63.26,16.07,35.88-7.38,101.48-124.32,88.65-223.46Z"/>
  <path class="j" d="M331.26,262.62s18.34,67.32-4,136.65c-22.36,69.33-36.84,78.94-40.75,85.19-6.25,9.98-1.99,24.56,13,26.72,12.47,1.8,35.46,11.91,61.04-9.56,27.2-22.86,27.33-160.45-29.29-239.01Z"/>
  <path class="h" d="M335.99,232.17s76.83,38.52,114.67,108.98c37.84,70.45,30.21,91.05,13.16,106.75-17.06,15.69-58.63,28.63-59.65-3.37-1.03-32,4.14-138.27-68.18-212.36Z"/>
  <path class="b" d="M322.06,199.6s81.24-6.9,146.68,40.29c65.41,47.18,48.67,70.26,41.71,83.37-6.96,13.1-25.67,36.39-49.14-2.04-23.46-38.44-78.22-101.11-139.25-121.62Z"/>
  <path class="m" d="M289.78,179.92s72.63-10.24,110.62,4.2c48.44,18.42,76.16,41.57,87.46,31.92,11.29-9.62,21.9-52.77-23.3-68.57-45.2-15.81-134.6,2.36-174.78,32.45Z"/>
  <path class="d" d="M249.22,179.43s44.21-38.43,89.02-48.77c44.81-10.34,72.46-1.5,81.14-12.33,8.71-10.83-.36-39.49-24.96-47.67-24.6-8.16-105.9,25.43-145.2,108.77Z"/>
  <path class="e" d="M217.54,192.26s18.42-57.34,61.32-89.69c42.9-32.34,64.6-37.18,41.42-54.91-23.18-17.71-47.05-14.62-66.73,17.68-19.69,32.28-44.41,86.35-36,126.93Z"/>
  <path class="i" d="M199.68,223.36s-9.1-76.11,11.34-119.63c20.43-43.48,36.59-53.16,17.61-63.73-18.98-10.59-114.19,19.06-28.96,183.36Z"/>
</svg>