<?xml version="1.0" encoding="UTF-8"?>
<svg id="b" data-name="Layer 2" xmlns="http://www.w3.org/2000/svg" viewBox="0 0 215 200">
  <defs>
    <style>
      .d {
        fill: #649841;
      }

      .e {
        fill: #d91b5d;
      }

      .f {
        fill: #3b54a4;
      }

      .g {
        fill: #fdb813;
      }

      .h {
        fill: #664a9d;
      }

      .i {
        fill: #f69320;
      }
    </style>
  </defs>
  <g id="c" data-name="Layer 1">
    <g>
      <path class="f" d="M115.62,196.1c6.38-4.81,11.77-10.9,15.8-17.88,5.26-9.11,8.03-19.46,8.02-29.91,0-10.51-2.79-20.87-8.04-29.97-4.01-6.94-9.39-13-15.79-17.82,14.71-6.07,31.66-5.07,45.65,3,7.83,4.51,14.37,11.05,18.91,18.93,4.55,7.88,6.95,16.82,6.94,25.86-.02,18.43-9.93,35.59-25.87,44.79-13.96,8.06-30.9,9.06-45.63,3Z"/>
      <path class="h" d="M34.84,174.21c-3.4-5.9-5.61-12.41-6.5-19.13,7.36,3.12,15.32,4.75,23.39,4.75,10.51,0,20.85-2.77,29.91-8,16.33-9.45,27.19-26.09,29.47-44.55,5.37,4.12,9.89,9.26,13.28,15.11,4.54,7.87,6.95,16.84,6.95,25.93,0,9.03-2.39,17.97-6.94,25.85-4.55,7.88-11.09,14.43-18.93,18.94-15.97,9.2-35.79,9.19-51.72,0-7.86-4.54-14.4-11.07-18.91-18.88t0,0Z"/>
      <path class="d" d="M112,93.24c2.1-15.78,11.44-29.96,25.42-38.04,7.82-4.52,16.76-6.91,25.85-6.91,9.1,0,18.04,2.4,25.87,6.92,7.86,4.55,14.42,11.11,18.96,18.98,4.51,7.81,6.89,16.74,6.89,25.82,0,16.13-7.6,31.3-20.21,41.02-.98-7.93-3.55-15.64-7.58-22.63-5.26-9.11-12.83-16.68-21.89-21.9-16.35-9.42-36.18-10.51-53.31-3.25Z"/>
      <path class="e" d="M6.89,125.82c-4.51-7.81-6.89-16.74-6.89-25.81,0-16.13,7.6-31.3,20.21-41.02.98,7.93,3.55,15.64,7.58,22.63,5.26,9.1,12.82,16.68,21.88,21.9,16.35,9.42,36.19,10.51,53.32,3.25-2.1,15.77-11.44,29.95-25.42,38.04-7.82,4.52-16.76,6.91-25.85,6.91-9.1,0-18.04-2.39-25.86-6.92-7.86-4.55-14.42-11.11-18.96-18.98h0Z"/>
      <path class="g" d="M90.61,77.61c-4.54-7.87-6.95-16.84-6.95-25.93,0-9.03,2.39-17.97,6.94-25.84,4.55-7.88,11.09-14.43,18.92-18.94,15.96-9.2,35.79-9.2,51.73,0,7.86,4.54,14.4,11.07,18.91,18.88,3.41,5.9,5.61,12.41,6.5,19.13-7.36-3.12-15.32-4.75-23.39-4.75-10.51,0-20.85,2.76-29.91,8-16.34,9.45-27.2,26.09-29.48,44.56-5.37-4.12-9.89-9.25-13.27-15.11,0,0,0,0,0,0Z"/>
      <path class="i" d="M34.82,77.56c-4.55-7.88-6.95-16.83-6.94-25.86.02-18.42,9.93-35.58,25.87-44.79,13.96-8.06,30.9-9.06,45.62-3-6.38,4.81-11.77,10.89-15.8,17.88-5.26,9.11-8.04,19.45-8.02,29.91,0,10.51,2.79,20.88,8.04,29.98,4.01,6.94,9.39,13,15.79,17.82-14.71,6.07-31.66,5.07-45.65-3-7.83-4.51-14.36-11.06-18.91-18.93Z"/>
    </g>
  </g>
</svg>