<?xml version="1.0" encoding="UTF-8"?><svg id="square" xmlns="http://www.w3.org/2000/svg" viewBox="0 0 1200 1000"><text id="cast-on-label" transform="translate(370.09 751.12)" fill="#2f3a2f" font-family="Arial-BoldMT, Arial" font-size="55" font-weight="700"><tspan x="0" y="0">CAST ON</tspan></text><text id="cast-on-measure" transform="translate(375.95 887.17) rotate(.37)" fill="#2f3a2f" font-family="Arial-BoldMT, Arial" font-size="55" font-weight="700"><tspan x="0" y="0">Inches</tspan></text><text id="cast-on-stitches-label" transform="translate(467.1 821.4) rotate(.37)" fill="#2f3a2f" font-family="ArialMT, Arial" font-size="55"><tspan x="0" y="0">Stitches</tspan></text><text id="cast-on-stitches-count" transform="translate(367.56 819.46) rotate(.37)" fill="#2f3a2f" font-family="Arial-BoldMT, Arial" font-size="55" font-weight="700"><tspan x="0" y="0">100</tspan></text><g id="height-line"><line x1="865.55" y1="634.5" x2="865.55" y2="12.71" fill="none" stroke="#738c52" stroke-miterlimit="10" stroke-width="6"/><polygon id="arrow-left" points="848.72 5.41 882.39 5.41 865.55 22.25 848.72 5.41" fill="#738c52"/><polygon id="arrow-left-2" points="881.39 644.5 847.72 644.5 864.55 627.66 881.39 644.5" fill="#738c52"/></g><g id="height-line-2"><line x1="167.8" y1="675.96" x2="809.85" y2="675.96" fill="none" stroke="#738c52" stroke-miterlimit="10" stroke-width="5.97"/><polygon id="arrow-left-3" points="820.5 659.12 820.5 692.79 803.83 675.96 820.5 659.12" fill="#738c52"/><polygon id="arrow-left-4" points="156.05 691.79 156.05 658.12 172.72 674.96 156.05 691.79" fill="#738c52"/></g><g id="row-label"><text transform="translate(1016.87 373.95)" fill="#2f3a2f" font-family="ArialMT, Arial" font-size="55"><tspan x="0" y="0">rows</tspan></text></g><g id="row-count"><text transform="translate(919.64 373.95)" fill="#2f3a2f" font-family="Arial-BoldMT, Arial" font-size="55" font-weight="700"><tspan x="0" y="0">100</tspan></text></g><text id="height-measure" transform="translate(929.5 436.67)" font-family="Arial-BoldMT, Arial" font-size="55" font-weight="700"><tspan x="0" y="0">24”</tspan></text><text id="height-label" transform="translate(924.58 315.35) rotate(.47)" fill="#2f3a2f" font-family="Arial-BoldMT, Arial" font-size="55" font-weight="700"><tspan x="0" y="0">HEIGHT</tspan></text><g id="shape"><rect id="square-outline" x="174.95" y="14.68" width="641.55" height="617.79" fill="none" stroke="#2f3a2f" stroke-miterlimit="10" stroke-width="7.74"/></g></svg>