<?xml version="1.0" encoding="UTF-8"?><svg id="triangle-symmetric" xmlns="http://www.w3.org/2000/svg" viewBox="0 0 1200 1000"><text id="cast-on-label" transform="translate(356.42 817.53)" fill="#2f3a2f" font-family="Arial-BoldMT, Arial" font-size="50" font-weight="700"><tspan x="0" y="0">CAST ON</tspan></text><text id="cast-on-measure" transform="translate(400.03 891.47)" fill="#2f3a2f" font-family="Arial-BoldMT, Arial" font-size="35" font-weight="700"><tspan x="0" y="0">Inches</tspan></text><text id="cast-on-stitches-label" transform="translate(444.84 854.96)" fill="#2f3a2f" font-family="ArialMT, Arial" font-size="35"><tspan x="0" y="0">Stitches</tspan></text><text id="cast-on-stitches-count" transform="translate(378.66 854.96)" fill="#2f3a2f" font-family="Arial-BoldMT, Arial" font-size="35" font-weight="700"><tspan x="0" y="0">100</tspan></text><g id="height-line"><line x1="884.38" y1="734.09" x2="884.38" y2="12.12" fill="none" stroke="#738c52" stroke-miterlimit="10" stroke-width="6"/><polygon id="arrow-left" points="867.54 4.82 901.21 4.82 884.38 21.66 867.54 4.82" fill="#738c52"/><polygon id="arrow-left-2" points="900.21 740.91 866.54 740.91 883.38 724.07 900.21 740.91" fill="#738c52"/></g><g id="height-line-2"><line x1="99.69" y1="769.37" x2="831.36" y2="769.91" fill="none" stroke="#738c52" stroke-miterlimit="10" stroke-width="6"/><polygon id="arrow-left-3" points="844.96 752.53 844.96 786.2 828.12 769.36 844.96 752.53" fill="#738c52"/><polygon id="arrow-left-4" points="92.87 785.2 92.87 751.53 109.71 768.36 92.87 785.2" fill="#738c52"/></g><g id="row-label"><text transform="translate(972.69 360.36)" fill="#2f3a2f" font-family="ArialMT, Arial" font-size="35"><tspan x="0" y="0">rows</tspan></text></g><g id="row-count"><text transform="translate(898.83 360.36)" fill="#2f3a2f" font-family="Arial-BoldMT, Arial" font-size="35" font-weight="700"><tspan x="0" y="0">100</tspan></text></g><text id="height-measure" transform="translate(903.45 404.08)" font-family="Arial-BoldMT, Arial" font-size="35" font-weight="700"><tspan x="0" y="0">24”</tspan></text><text id="height-label" transform="translate(901.83 316.8) rotate(.47)" fill="#2f3a2f" font-family="Arial-BoldMT, Arial" font-size="50" font-weight="700"><tspan x="0" y="0">HEIGHT</tspan></text><g id="shape"><polygon id="symmetric-outline" points="842.06 732.73 95.77 732.73 460.54 14.09 842.06 732.73" fill="none" stroke="#2f3a2f" stroke-miterlimit="10" stroke-width="9"/></g></svg>