<?xml version="1.0" encoding="UTF-8"?><svg id="square" xmlns="http://www.w3.org/2000/svg" viewBox="0 0 1200 1000"><text id="cast-on-label" transform="translate(435.59 817.12)" fill="#2f3a2f" font-family="Arial-BoldMT, Arial" font-size="50" font-weight="700"><tspan x="0" y="0">CAST ON</tspan></text><text id="cast-on-measure" transform="translate(479.2 891.06)" fill="#2f3a2f" font-family="Arial-BoldMT, Arial" font-size="35" font-weight="700"><tspan x="0" y="0">Inches</tspan></text><text id="cast-on-stitches-label" transform="translate(524.02 854.56)" fill="#2f3a2f" font-family="ArialMT, Arial" font-size="35"><tspan x="0" y="0">Stitches</tspan></text><text id="cast-on-stitches-count" transform="translate(457.84 854.56)" fill="#2f3a2f" font-family="Arial-BoldMT, Arial" font-size="35" font-weight="700"><tspan x="0" y="0">100</tspan></text><g id="height-line"><line x1="963.55" y1="733.68" x2="963.55" y2="11.71" fill="none" stroke="#738c52" stroke-miterlimit="10" stroke-width="6"/><polygon id="arrow-left" points="946.72 4.41 980.39 4.41 963.55 21.25 946.72 4.41" fill="#738c52"/><polygon id="arrow-left-2" points="979.39 740.5 945.72 740.5 962.55 723.66 979.39 740.5" fill="#738c52"/></g><g id="height-line-2"><line x1="178.87" y1="768.96" x2="910.53" y2="769.5" fill="none" stroke="#738c52" stroke-miterlimit="10" stroke-width="6"/><polygon id="arrow-left-3" points="924.14 752.12 924.14 785.79 907.3 768.96 924.14 752.12" fill="#738c52"/><polygon id="arrow-left-4" points="172.05 784.79 172.05 751.12 188.89 767.96 172.05 784.79" fill="#738c52"/></g><g id="row-label"><text transform="translate(1051.87 359.95)" fill="#2f3a2f" font-family="ArialMT, Arial" font-size="35"><tspan x="0" y="0">rows</tspan></text></g><g id="row-count"><text transform="translate(978.01 359.95)" fill="#2f3a2f" font-family="Arial-BoldMT, Arial" font-size="35" font-weight="700"><tspan x="0" y="0">100</tspan></text></g><text id="height-measure" transform="translate(982.63 403.67)" font-family="Arial-BoldMT, Arial" font-size="35" font-weight="700"><tspan x="0" y="0">24”</tspan></text><text id="height-label" transform="translate(981 316.4) rotate(.47)" fill="#2f3a2f" font-family="Arial-BoldMT, Arial" font-size="50" font-weight="700"><tspan x="0" y="0">HEIGHT</tspan></text><g id="shape"><rect id="square-outline" x="174.95" y="13.68" width="746.29" height="718.64" fill="none" stroke="#2f3a2f" stroke-miterlimit="10" stroke-width="9"/></g></svg>