<?xml version="1.0" encoding="UTF-8"?><svg id="triangle_right_angle" xmlns="http://www.w3.org/2000/svg" viewBox="0 0 1200 1000"><text id="cast-on-label" transform="translate(460.92 826.53)" fill="#2f3a2f" font-family="Arial-BoldMT, Arial" font-size="55" font-weight="700"><tspan x="0" y="0">CAST ON</tspan></text><text id="cast-on-measure" transform="translate(527.03 950.47)" fill="#2f3a2f" font-family="Arial-BoldMT, Arial" font-size="55" font-weight="700"><tspan x="0" y="0">Inches</tspan></text><text id="cast-on-stitches-label" transform="translate(571.84 888.55)" fill="#2f3a2f" font-family="ArialMT, Arial" font-size="55"><tspan x="0" y="0">Stitches</tspan></text><text id="cast-on-stitches-count" transform="translate(468.29 885.96)" fill="#2f3a2f" font-family="Arial-BoldMT, Arial" font-size="55" font-weight="700"><tspan x="0" y="0">100</tspan></text><g id="height-line"><line x1="1022.38" y1="738.09" x2="1022.38" y2="16.12" fill="none" stroke="#738c52" stroke-miterlimit="10" stroke-width="6"/><polygon id="arrow-left" points="1005.54 8.82 1039.21 8.82 1022.38 25.66 1005.54 8.82" fill="#738c52"/><polygon id="arrow-left-2" points="1038.21 744.91 1004.54 744.91 1021.38 728.07 1038.21 744.91" fill="#738c52"/></g><g id="height-line-2"><line x1="226.69" y1="778.37" x2="958.36" y2="778.91" fill="none" stroke="#738c52" stroke-miterlimit="10" stroke-width="6"/><polygon id="arrow-left-3" points="971.96 761.53 971.96 795.2 955.12 778.36 971.96 761.53" fill="#738c52"/><polygon id="arrow-left-4" points="219.87 794.2 219.87 760.53 236.71 777.36 219.87 794.2" fill="#738c52"/></g><g id="row-label"><text transform="translate(785.69 339.36)" fill="#2f3a2f" font-family="ArialMT, Arial" font-size="55"><tspan x="0" y="0">rows</tspan></text></g><g id="row-count"><text transform="translate(691.8 339.36)" fill="#2f3a2f" font-family="Arial-BoldMT, Arial" font-size="50" font-weight="700"><tspan x="0" y="0">100</tspan></text></g><text id="height-measure" transform="translate(693.33 402.08)" font-family="Arial-BoldMT, Arial" font-size="55" font-weight="700"><tspan x="0" y="0">24”</tspan></text><text id="height-label" transform="translate(686.4 275.76) rotate(.47)" fill="#2f3a2f" font-family="Arial-BoldMT, Arial" font-size="55" font-weight="700"><tspan x="0" y="0">HEIGHT</tspan></text><g id="shape"><polygon id="triangle-right-outline" points="975.06 732.73 228.77 732.73 228.77 14.09 975.06 732.73" fill="none" stroke="#2f3a2f" stroke-miterlimit="10" stroke-width="9"/></g></svg>