<?xml version="1.0" encoding="UTF-8"?><svg id="triangle-symmetric" xmlns="http://www.w3.org/2000/svg" viewBox="0 0 1200 1000"><text id="cast-on-label" transform="translate(428.92 819.53)" fill="#2f3a2f" font-family="Arial-BoldMT, Arial" font-size="55" font-weight="700"><tspan x="0" y="0">CAST ON</tspan></text><text id="cast-on-measure" transform="translate(431.03 935.47)" fill="#2f3a2f" font-family="Arial-BoldMT, Arial" font-size="55" font-weight="700"><tspan x="0" y="0">Inches</tspan></text><text id="cast-on-stitches-label" transform="translate(526.84 876.96)" fill="#2f3a2f" font-family="ArialMT, Arial" font-size="55"><tspan x="0" y="0">Stitches</tspan></text><text id="cast-on-stitches-count" transform="translate(425.64 876.96)" fill="#2f3a2f" font-family="Arial-BoldMT, Arial" font-size="50" font-weight="700"><tspan x="0" y="0">100</tspan></text><g id="height-line"><line x1="979.38" y1="736.09" x2="979.38" y2="14.12" fill="none" stroke="#738c52" stroke-miterlimit="10" stroke-width="6"/><polygon id="arrow-left" points="962.54 6.82 996.21 6.82 979.38 23.66 962.54 6.82" fill="#738c52"/><polygon id="arrow-left-2" points="995.21 742.91 961.54 742.91 978.38 726.07 995.21 742.91" fill="#738c52"/></g><g id="height-line-2"><line x1="194.69" y1="771.37" x2="926.36" y2="771.91" fill="none" stroke="#738c52" stroke-miterlimit="10" stroke-width="6"/><polygon id="arrow-left-3" points="939.96 754.53 939.96 788.2 923.12 771.36 939.96 754.53" fill="#738c52"/><polygon id="arrow-left-4" points="187.87 787.2 187.87 753.53 204.71 770.36 187.87 787.2" fill="#738c52"/></g><g id="row-label"><text transform="translate(815.69 201.68)" fill="#2f3a2f" font-family="ArialMT, Arial" font-size="55"><tspan x="0" y="0">rows</tspan></text></g><g id="row-count"><text transform="translate(717.8 199.04)" fill="#2f3a2f" font-family="Arial-BoldMT, Arial" font-size="50" font-weight="700"><tspan x="0" y="0">100</tspan></text></g><text id="height-measure" transform="translate(725.33 264.08)" font-family="Arial-BoldMT, Arial" font-size="55" font-weight="700"><tspan x="0" y="0">24”</tspan></text><text id="height-label" transform="translate(717.4 127.76) rotate(.47)" fill="#2f3a2f" font-family="Arial-BoldMT, Arial" font-size="55" font-weight="700"><tspan x="0" y="0">HEIGHT</tspan></text><g id="shape"><polygon id="symmetric-outline" points="937.06 734.73 190.77 734.73 555.54 16.09 937.06 734.73" fill="none" stroke="#2f3a2f" stroke-miterlimit="10" stroke-width="9"/></g></svg>