<?xml version="1.0" encoding="UTF-8"?><svg xmlns="http://www.w3.org/2000/svg" width="3.73in" height="4.89in" viewBox="0 0 268.64 352.18"><g id="cardi-body-round"><path id="ROUND_BODY" d="M96.02,322.84h64.67M162.84,178.01c-.76,8.91-4.46,35.26-3.44,50.19s1.36,94.43,1.36,94.43M156.85,109.25s-7.71,48.97,5.99,69.34M95.78,137.76s32.19-11.01,33.16-38.58M157.15,108.94l-28.19-10.1M96.02,137.52v185.52" fill="none" stroke="#020202" stroke-linecap="round" stroke-linejoin="round"/><g isolation="isolate"><g isolation="isolate"><g isolation="isolate"><text transform="translate(103.99 232.37)" fill="#010101" font-family="Arial-BoldMT, Arial" font-size="15" font-weight="700" isolation="isolate"><tspan x="0" y="0">FRONT</tspan></text></g></g></g></g><g id="cardi-japanese-notation-layer"><g id="japanese-overlay"><circle id="jp-shoulder" cx="192.59" cy="100.96" r="4.28" fill="none"/><circle id="jp-cast-on" cx="72.84" cy="331.93" r="4.28" fill="none"/><circle id="jp-side-shaping" cx="199.72" cy="252.56" r="4.28" fill="none"/><circle id="jp-armhole" cx="202.09" cy="176.52" r="4.28" fill="none"/><circle id="jp-armhole-shaping" cx="202.09" cy="152.28" r="4.28" fill="none"/><circle id="jp-neckline" cx="81.67" cy="61.16" r="4.28" fill="none"/><circle id="jp-neck-center" cx="134.43" cy="116.64" r="4.28" fill="none"/><circle id="jp-rows-neckine" cx="43.36" cy="108.08" r="4.28" fill="none"/><circle id="jp-rows-reset" cx="43.36" cy="172.24" r="4.28" fill="none"/><circle id="jp-rows-armhole-start" cx="43.36" cy="185.07" r="4.28" fill="none"/><circle id="jp-rows-hem" cx="43.36" cy="301.03" r="4.28" fill="none"/><circle id="jp-rows-cast-on" cx="43.83" cy="321" r="4.28" fill="none"/></g><text transform="translate(109.94 336.76)" fill="#231f20" font-family="ArialMT, Arial" font-size="14"><tspan x="0" y="0">{{jp-caston}}</tspan></text><g isolation="isolate"><text transform="translate(63.28 325.72)" fill="#565656" font-family="MyriadPro-It, &apos;Myriad Pro&apos;" font-size="12" font-style="italic" isolation="isolate"><tspan x="0" y="0">{{</tspan></text><text transform="translate(69.53 325.72)" fill="#565656" font-family="MyriadPro-It, &apos;Myriad Pro&apos;" font-size="12" font-style="italic" isolation="isolate"><tspan x="0" y="0">r</tspan></text><text transform="translate(72.96 325.72)" fill="#565656" font-family="MyriadPro-It, &apos;Myriad Pro&apos;" font-size="12" font-style="italic" isolation="isolate"><tspan x="0" y="0">c</tspan></text><text transform="translate(77.61 325.72)" fill="#565656" font-family="MyriadPro-It, &apos;Myriad Pro&apos;" font-size="12" font-style="italic" isolation="isolate" letter-spacing=".03em"><tspan x="0" y="0">-</tspan></text><text transform="translate(81.28 325.72)" fill="#565656" font-family="MyriadPro-It, &apos;Myriad Pro&apos;" font-size="12" font-style="italic" isolation="isolate" letter-spacing="-.02em"><tspan x="0" y="0">c</tspan></text><text transform="translate(85.76 325.72)" fill="#565656" font-family="MyriadPro-It, &apos;Myriad Pro&apos;" font-size="12" font-style="italic" isolation="isolate"><tspan x="0" y="0">as</tspan></text><text transform="translate(95.61 325.72)" fill="#565656" font-family="MyriadPro-It, &apos;Myriad Pro&apos;" font-size="12" font-style="italic" isolation="isolate"><tspan x="0" y="0">t</tspan></text><text transform="translate(99.01 325.72)" fill="#565656" font-family="MyriadPro-It, &apos;Myriad Pro&apos;" font-size="12" font-style="italic" isolation="isolate"><tspan x="0" y="0">on}}</tspan></text></g><g isolation="isolate"><text transform="translate(62.08 303.89)" fill="#565656" font-family="MyriadPro-It, &apos;Myriad Pro&apos;" font-size="12" font-style="italic" isolation="isolate"><tspan x="0" y="0">{{</tspan></text><text transform="translate(68.33 303.89)" fill="#565656" font-family="MyriadPro-It, &apos;Myriad Pro&apos;" font-size="12" font-style="italic" isolation="isolate"><tspan x="0" y="0">r</tspan></text><text transform="translate(71.76 303.89)" fill="#565656" font-family="MyriadPro-It, &apos;Myriad Pro&apos;" font-size="12" font-style="italic" isolation="isolate"><tspan x="0" y="0">c-hem}}</tspan></text></g><g isolation="isolate"><text transform="translate(57.67 190.08)" fill="#565656" font-family="MyriadPro-It, &apos;Myriad Pro&apos;" font-size="12" font-style="italic" isolation="isolate"><tspan x="0" y="0">{{</tspan></text><text transform="translate(63.92 190.08)" fill="#565656" font-family="MyriadPro-It, &apos;Myriad Pro&apos;" font-size="12" font-style="italic" isolation="isolate"><tspan x="0" y="0">r</tspan></text><text transform="translate(67.35 190.08)" fill="#565656" font-family="MyriadPro-It, &apos;Myriad Pro&apos;" font-size="12" font-style="italic" isolation="isolate"><tspan x="0" y="0">c</tspan></text><text transform="translate(72 190.08)" fill="#565656" font-family="MyriadPro-It, &apos;Myriad Pro&apos;" font-size="12" font-style="italic" isolation="isolate" letter-spacing=".02em"><tspan x="0" y="0">-</tspan></text><text transform="translate(75.63 190.08)" fill="#565656" font-family="MyriadPro-It, &apos;Myriad Pro&apos;" font-size="12" font-style="italic" isolation="isolate"><tspan x="0" y="0">armhol</tspan></text><text transform="translate(107.89 190.08)" fill="#565656" font-family="MyriadPro-It, &apos;Myriad Pro&apos;" font-size="12" font-style="italic" isolation="isolate" letter-spacing="0em"><tspan x="0" y="0">e</tspan></text><text transform="translate(112.99 190.08)" fill="#565656" font-family="MyriadPro-It, &apos;Myriad Pro&apos;" font-size="12" font-style="italic" isolation="isolate"><tspan x="0" y="0">-</tspan></text><text transform="translate(116.36 190.08)" fill="#565656" font-family="MyriadPro-It, &apos;Myriad Pro&apos;" font-size="12" font-style="italic" isolation="isolate"><tspan x="0" y="0">b</tspan></text><text transform="translate(122.17 190.08)" fill="#565656" font-family="MyriadPro-It, &apos;Myriad Pro&apos;" font-size="12" font-style="italic" isolation="isolate"><tspan x="0" y="0">o}}</tspan></text></g><g isolation="isolate"><text transform="translate(51.78 174.62)" fill="#565656" font-family="MyriadPro-It, &apos;Myriad Pro&apos;" font-size="12" font-style="italic" isolation="isolate"><tspan x="0" y="0">{{</tspan></text><text transform="translate(59.45 174.62)" fill="#565656" font-family="MyriadPro-It, &apos;Myriad Pro&apos;" font-size="12" font-style="italic" isolation="isolate"><tspan x="0" y="0">r</tspan></text><text transform="translate(61.46 174.62)" fill="#565656" font-family="MyriadPro-It, &apos;Myriad Pro&apos;" font-size="12" font-style="italic" isolation="isolate"><tspan x="0" y="0">c_</tspan></text><text transform="translate(71.61 174.62)" fill="#565656" font-family="MyriadPro-It, &apos;Myriad Pro&apos;" font-size="12" font-style="italic" isolation="isolate"><tspan x="0" y="0">r</tspan></text><text transform="translate(75.04 174.62)" fill="#565656" font-family="MyriadPro-It, &apos;Myriad Pro&apos;" font-size="12" font-style="italic" isolation="isolate"><tspan x="0" y="0">eset}}</tspan></text></g><text transform="translate(158.94 163.18)" fill="#231f20" font-family="ArialMT, Arial" font-size="14"><tspan x="0" y="0">{{jp-armhole-shaping}}</tspan></text><text transform="translate(56.32 89.78)" fill="#231f20" font-family="ArialMT, Arial" font-size="14"><tspan x="0" y="0">{{jp-neckline-shaping}}</tspan></text><line x1="66.17" y1="301.03" x2="67.67" y2="301.03" fill="none" stroke="#939598" stroke-miterlimit="10"/><line x1="96.04" y1="301.03" x2="159.49" y2="300.29" fill="none" stroke="#939598" stroke-dasharray="2.99 2.99" stroke-miterlimit="10"/><line x1="52.38" y1="180.32" x2="167.15" y2="180.32" fill="none" stroke="#bdbec0" stroke-dasharray="2.91 2.91" stroke-miterlimit="10"/><line x1="68.47" y1="180.32" x2="69.97" y2="180.32" fill="none" stroke="#bdbec0" stroke-miterlimit="10"/><line x1="78.33" y1="143.08" x2="78.33" y2="165.67" fill="none" stroke="#565656"/><path d="M76.45,143.17c0-1.04.84-1.88,1.88-1.88s1.88.84,1.88,1.88-.84,1.88-1.88,1.88-1.88-.84-1.88-1.88Z" fill="#565656"/><path d="M76.45,165.58c0,1.04.84,1.88,1.88,1.88s1.88-.84,1.88-1.88-.84-1.88-1.88-1.88-1.88.84-1.88,1.88Z" fill="#565656"/><line x1="79.28" y1="194.43" x2="79.28" y2="292.09" fill="none" stroke="#565656"/><circle cx="79.28" cy="194.53" r="1.88" fill="#565656"/><circle cx="79.28" cy="291.99" r="1.88" fill="#565656"/><line x1="79.28" y1="308.02" x2="79.28" y2="315.85" fill="none" stroke="#565656"/><path d="M77.4,308.11c0-1.04.84-1.88,1.88-1.88s1.88.84,1.88,1.88-.84,1.88-1.88,1.88-1.88-.84-1.88-1.88Z" fill="#565656"/><circle cx="79.28" cy="315.76" r="1.88" fill="#565656"/><text transform="translate(165 184.21)" fill="#231f20" font-family="ArialMT, Arial" font-size="14"><tspan x="0" y="0">{{jp-armhole-bo}}</tspan></text><text transform="translate(165 258.82)" fill="#231f20" font-family="ArialMT, Arial" font-size="14"><tspan x="0" y="0">{{jp-body-rows}}</tspan></text><text transform="translate(145.23 75.14)" fill="#231f20" font-family="ArialMT, Arial" font-size="14"><tspan x="0" y="0">{{jp-shoulder-shaping}}</tspan></text><text transform="translate(94.18 131.63)" fill="#231f20" font-family="ArialMT, Arial" font-size="14"><tspan x="0" y="0">{{jp-neckline-bo}}</tspan></text><path d="M142.55,102.08s-27.84-20.22-4.26-29.97" fill="none" stroke="#bdbec0" stroke-dasharray="2.91 2.91" stroke-miterlimit="10"/><path d="M141.13,71.07c-1.14.99-2.47,2.46-3.16,3.73l-.03-2.53-1.64-1.92c1.36.51,3.32.73,4.84.72Z" fill="#bdbec0"/><path d="M112.97,117.41s-16.82,8.1-20.76-4.53" fill="none" stroke="#bdbec0" stroke-dasharray="2.91 2.91" stroke-miterlimit="10"/><path d="M91.58,109.92c.83,1.27,2.09,2.79,3.26,3.65l-2.51-.32-2.13,1.36c.69-1.27,1.18-3.19,1.38-4.69Z" fill="#bdbec0"/><line x1="51.66" y1="140.22" x2="96.22" y2="140.22" fill="none" stroke="#bdbec0" stroke-dasharray="2.91 2.91" stroke-miterlimit="10"/><text transform="translate(58.44 136.3)" fill="#565656" font-family="MyriadPro-It, &apos;Myriad Pro&apos;" font-size="12" font-style="italic"><tspan x="0" y="0">{{</tspan><tspan x="6.82" y="0" letter-spacing="0em">r</tspan><tspan x="10.56" y="0">c-nec</tspan><tspan x="36.24" y="0" letter-spacing="0em">k</tspan><tspan x="41.79" y="0">lin</tspan><tspan x="53.7" y="0" letter-spacing="0em">e</tspan><tspan x="59.25" y="0">-sta</tspan><tspan x="77.43" y="0" letter-spacing=".03em">r</tspan><tspan x="81.56" y="0">t}}</tspan></text></g></svg>