<?xml version="1.0" encoding="UTF-8"?><svg id="full" xmlns="http://www.w3.org/2000/svg" width="3.73in" height="4.2in" viewBox="0 0 268.64 302.28"><g id="round_body_only"><g id="back"><polyline points="69.26 257.53 69.26 270.73 193.96 270.73 193.96 257.53" fill="none" stroke="#020202" stroke-linecap="round" stroke-linejoin="round"/><path d="M67.16,125.93c.8,8.9,4.5,35.3,3.4,50.2-1,14.9-2.1,76.3-1.4,81.9" fill="none" stroke="#020202"/><path d="M196.16,125.93c-.8,8.9-4.5,35.3-3.4,50.2,1,14.9,2.1,76.3,1.4,81.9" fill="none" stroke="#020202"/><path d="M67.52,51.56l-.47,74.87" fill="none" stroke="#020202" stroke-linejoin="round"/><path d="M195.66,52.27l.39,74.16" fill="none" stroke="#020202" stroke-linejoin="round"/><path d="M101.21,51.56s5.15,26.08,30.05,26.08,29.12-25.9,29.12-25.9l35.82.36" fill="none" stroke="#020202" stroke-linejoin="round"/></g><line x1="67.88" y1="51.56" x2="101.55" y2="51.82" fill="none" stroke="#020202" stroke-linejoin="round"/><g isolation="isolate"><g isolation="isolate"><g isolation="isolate"><g isolation="isolate"><g isolation="isolate"><g isolation="isolate"><g isolation="isolate"><text transform="translate(109.66 181.13)" fill="#010101" font-family="Arial-BoldMT, Arial" font-size="15" font-weight="700" isolation="isolate"><tspan x="0" y="0">FRONT</tspan></text></g></g></g></g></g></g></g></g><g id="FRONT_japanese-notation"><g id="japanese-overlay"><circle id="jp-shoulder" cx="192.59" cy="51.06" r="4.28" fill="none"/><circle id="jp-cast-on" cx="72.84" cy="282.03" r="4.28" fill="none"/><circle id="jp-side-shaping" cx="199.72" cy="202.66" r="4.28" fill="none"/><circle id="jp-armhole" cx="202.09" cy="126.62" r="4.28" fill="none"/><circle id="jp-armhole-shaping" cx="202.09" cy="102.38" r="4.28" fill="none"/><circle id="jp-neckline" cx="81.67" cy="11.26" r="4.28" fill="none"/><circle id="jp-neck-center" cx="134.43" cy="66.74" r="4.28" fill="none"/><circle id="jp-rows-neckine" cx="43.36" cy="58.18" r="4.28" fill="none"/><circle id="jp-rows-reset" cx="43.36" cy="122.34" r="4.28" fill="none"/><circle id="jp-rows-armhole-start" cx="43.36" cy="135.17" r="4.28" fill="none"/><circle id="jp-rows-hem" cx="43.36" cy="251.13" r="4.28" fill="none"/><circle id="jp-rows-cast-on" cx="43.83" cy="271.1" r="4.28" fill="none"/></g><text transform="translate(102.46 282.94)" fill="#231f20" font-family="ArialMT, Arial" font-size="14"><tspan x="0" y="0">{{jp-caston}}</tspan></text><g isolation="isolate"><text transform="translate(25.46 276.7)" fill="#565656" font-family="MyriadPro-It, &apos;Myriad Pro&apos;" font-size="12" font-style="italic" isolation="isolate"><tspan x="0" y="0">{{</tspan></text><text transform="translate(31.71 276.7)" fill="#565656" font-family="MyriadPro-It, &apos;Myriad Pro&apos;" font-size="12" font-style="italic" isolation="isolate"><tspan x="0" y="0">r</tspan></text><text transform="translate(35.14 276.7)" fill="#565656" font-family="MyriadPro-It, &apos;Myriad Pro&apos;" font-size="12" font-style="italic" isolation="isolate"><tspan x="0" y="0">c</tspan></text><text transform="translate(39.79 276.7)" fill="#565656" font-family="MyriadPro-It, &apos;Myriad Pro&apos;" font-size="12" font-style="italic" isolation="isolate" letter-spacing=".03em"><tspan x="0" y="0">-</tspan></text><text transform="translate(43.46 276.7)" fill="#565656" font-family="MyriadPro-It, &apos;Myriad Pro&apos;" font-size="12" font-style="italic" isolation="isolate" letter-spacing="-.02em"><tspan x="0" y="0">c</tspan></text><text transform="translate(47.94 276.7)" fill="#565656" font-family="MyriadPro-It, &apos;Myriad Pro&apos;" font-size="12" font-style="italic" isolation="isolate"><tspan x="0" y="0">as</tspan></text><text transform="translate(57.79 276.7)" fill="#565656" font-family="MyriadPro-It, &apos;Myriad Pro&apos;" font-size="12" font-style="italic" isolation="isolate"><tspan x="0" y="0">t</tspan></text><text transform="translate(61.19 276.7)" fill="#565656" font-family="MyriadPro-It, &apos;Myriad Pro&apos;" font-size="12" font-style="italic" isolation="isolate"><tspan x="0" y="0">on}}</tspan></text></g><g isolation="isolate"><text transform="translate(28.15 253.99)" fill="#565656" font-family="MyriadPro-It, &apos;Myriad Pro&apos;" font-size="12" font-style="italic" isolation="isolate"><tspan x="0" y="0">{{</tspan></text><text transform="translate(34.4 253.99)" fill="#565656" font-family="MyriadPro-It, &apos;Myriad Pro&apos;" font-size="12" font-style="italic" isolation="isolate"><tspan x="0" y="0">r</tspan></text><text transform="translate(37.83 253.99)" fill="#565656" font-family="MyriadPro-It, &apos;Myriad Pro&apos;" font-size="12" font-style="italic" isolation="isolate"><tspan x="0" y="0">c-hem}}</tspan></text></g><g isolation="isolate"><text transform="translate(28.15 139.98)" fill="#565656" font-family="MyriadPro-It, &apos;Myriad Pro&apos;" font-size="12" font-style="italic" isolation="isolate"><tspan x="0" y="0">{{</tspan></text><text transform="translate(34.4 139.98)" fill="#565656" font-family="MyriadPro-It, &apos;Myriad Pro&apos;" font-size="12" font-style="italic" isolation="isolate"><tspan x="0" y="0">r</tspan></text><text transform="translate(37.83 139.98)" fill="#565656" font-family="MyriadPro-It, &apos;Myriad Pro&apos;" font-size="12" font-style="italic" isolation="isolate"><tspan x="0" y="0">c</tspan></text><text transform="translate(42.48 139.98)" fill="#565656" font-family="MyriadPro-It, &apos;Myriad Pro&apos;" font-size="12" font-style="italic" isolation="isolate" letter-spacing=".02em"><tspan x="0" y="0">-</tspan></text><text transform="translate(46.11 139.98)" fill="#565656" font-family="MyriadPro-It, &apos;Myriad Pro&apos;" font-size="12" font-style="italic" isolation="isolate"><tspan x="0" y="0">armhol</tspan></text><text transform="translate(78.37 139.98)" fill="#565656" font-family="MyriadPro-It, &apos;Myriad Pro&apos;" font-size="12" font-style="italic" isolation="isolate" letter-spacing="0em"><tspan x="0" y="0">e</tspan></text><text transform="translate(83.47 139.98)" fill="#565656" font-family="MyriadPro-It, &apos;Myriad Pro&apos;" font-size="12" font-style="italic" isolation="isolate"><tspan x="0" y="0">-</tspan></text><text transform="translate(86.84 139.98)" fill="#565656" font-family="MyriadPro-It, &apos;Myriad Pro&apos;" font-size="12" font-style="italic" isolation="isolate"><tspan x="0" y="0">b</tspan></text><text transform="translate(92.65 139.98)" fill="#565656" font-family="MyriadPro-It, &apos;Myriad Pro&apos;" font-size="12" font-style="italic" isolation="isolate"><tspan x="0" y="0">o}}</tspan></text></g><g isolation="isolate"><text transform="translate(28.15 126.14)" fill="#565656" font-family="MyriadPro-It, &apos;Myriad Pro&apos;" font-size="12" font-style="italic" isolation="isolate"><tspan x="0" y="0">{{</tspan></text><text transform="translate(34.4 126.14)" fill="#565656" font-family="MyriadPro-It, &apos;Myriad Pro&apos;" font-size="12" font-style="italic" isolation="isolate"><tspan x="0" y="0">r</tspan></text><text transform="translate(37.83 126.14)" fill="#565656" font-family="MyriadPro-It, &apos;Myriad Pro&apos;" font-size="12" font-style="italic" isolation="isolate"><tspan x="0" y="0">c_</tspan></text><text transform="translate(47.98 126.14)" fill="#565656" font-family="MyriadPro-It, &apos;Myriad Pro&apos;" font-size="12" font-style="italic" isolation="isolate"><tspan x="0" y="0">r</tspan></text><text transform="translate(51.41 126.14)" fill="#565656" font-family="MyriadPro-It, &apos;Myriad Pro&apos;" font-size="12" font-style="italic" isolation="isolate"><tspan x="0" y="0">eset}}</tspan></text></g><text transform="translate(190.38 113.64)" fill="#231f20" font-family="ArialMT, Arial" font-size="14"><tspan x="0" y="0">{{jp-armhole-shaping}}</tspan></text><text transform="translate(40.6 28.83)" fill="#231f20" font-family="ArialMT, Arial" font-size="14"><tspan x="0" y="0">{{jp-neckline-shaping}}</tspan></text><line x1="66.17" y1="251.13" x2="67.67" y2="251.13" fill="none" stroke="#939598" stroke-miterlimit="10"/><line x1="70.66" y1="251.13" x2="188.64" y2="251.13" fill="none" stroke="#939598" stroke-dasharray="2.99 2.99" stroke-miterlimit="10"/><line x1="190.14" y1="251.13" x2="191.64" y2="251.13" fill="none" stroke="#939598" stroke-miterlimit="10"/><line x1="29.1" y1="130.42" x2="30.6" y2="130.42" fill="none" stroke="#bdbec0" stroke-miterlimit="10"/><line x1="33.51" y1="130.42" x2="67.02" y2="130.42" fill="none" stroke="#bdbec0" stroke-dasharray="2.91 2.91" stroke-miterlimit="10"/><line x1="68.47" y1="130.42" x2="69.97" y2="130.42" fill="none" stroke="#bdbec0" stroke-miterlimit="10"/><line x1="48.6" y1="77.56" x2="131.33" y2="77.56" fill="none" stroke="#bdbec0" stroke-dasharray="2.91 2.91" stroke-miterlimit="10"/><line x1="47.33" y1="64.69" x2="47.33" y2="115.77" fill="none" stroke="#565656"/><circle cx="47.33" cy="64.78" r="1.88" fill="#565656"/><path d="M45.45,115.68c0,1.04.84,1.88,1.88,1.88s1.88-.84,1.88-1.88-.84-1.88-1.88-1.88-1.88.84-1.88,1.88Z" fill="#565656"/><line x1="48.28" y1="144.53" x2="48.28" y2="242.19" fill="none" stroke="#565656"/><circle cx="48.28" cy="144.62" r="1.88" fill="#565656"/><circle cx="48.28" cy="242.09" r="1.88" fill="#565656"/><line x1="48.28" y1="258.11" x2="48.28" y2="265.95" fill="none" stroke="#565656"/><path d="M46.4,258.21c0-1.04.84-1.88,1.88-1.88s1.88.84,1.88,1.88-.84,1.88-1.88,1.88-1.88-.84-1.88-1.88Z" fill="#565656"/><circle cx="48.28" cy="265.85" r="1.88" fill="#565656"/><text transform="translate(198.46 133.24)" fill="#231f20" font-family="ArialMT, Arial" font-size="14"><tspan x="0" y="0">{{jp-armhole-bo}}</tspan></text><text transform="translate(195.6 212.13)" fill="#231f20" font-family="ArialMT, Arial" font-size="14"><tspan x="0" y="0">{{jp-body-rows}}</tspan></text><text transform="translate(115.21 71.75)" fill="#231f20" font-family="ArialMT, Arial" font-size="14"><tspan x="0" y="0">{{jp-neckline-bo}}</tspan></text><path d="M80,34.63c-2.75,10.66-4.51,32.27,20.99,25.45" fill="none" stroke="#bdbec0" stroke-dasharray="2.91 2.91" stroke-miterlimit="10"/><path d="M103.88,59.22c-1.23.88-2.69,2.22-3.49,3.42l.2-2.52-1.46-2.06c1.31.63,3.24,1.03,4.75,1.16Z" fill="#bdbec0"/><g isolation="isolate"><text transform="translate(19.34 75.22)" fill="#565656" font-family="MyriadPro-It, &apos;Myriad Pro&apos;" font-size="12" font-style="italic" isolation="isolate"><tspan x="0" y="0">{{</tspan></text><text transform="translate(25.59 75.22)" fill="#565656" font-family="MyriadPro-It, &apos;Myriad Pro&apos;" font-size="12" font-style="italic" isolation="isolate"><tspan x="0" y="0">r</tspan></text><text transform="translate(29.02 75.22)" fill="#565656" font-family="MyriadPro-It, &apos;Myriad Pro&apos;" font-size="12" font-style="italic" isolation="isolate"><tspan x="0" y="0">c-nec</tspan></text><text transform="translate(52.56 75.22)" fill="#565656" font-family="MyriadPro-It, &apos;Myriad Pro&apos;" font-size="12" font-style="italic" isolation="isolate"><tspan x="0" y="0">k</tspan></text><text transform="translate(57.65 75.22)" fill="#565656" font-family="MyriadPro-It, &apos;Myriad Pro&apos;" font-size="12" font-style="italic" isolation="isolate"><tspan x="0" y="0">lin</tspan></text><text transform="translate(68.56 75.22)" fill="#565656" font-family="MyriadPro-It, &apos;Myriad Pro&apos;" font-size="12" font-style="italic" isolation="isolate" letter-spacing="0em"><tspan x="0" y="0">e</tspan></text><text transform="translate(73.66 75.22)" fill="#565656" font-family="MyriadPro-It, &apos;Myriad Pro&apos;" font-size="12" font-style="italic" isolation="isolate"><tspan x="0" y="0">-sta</tspan></text><text transform="translate(90.32 75.22)" fill="#565656" font-family="MyriadPro-It, &apos;Myriad Pro&apos;" font-size="12" font-style="italic" isolation="isolate" letter-spacing=".03em"><tspan x="0" y="0">r</tspan></text><text transform="translate(94.1 75.22)" fill="#565656" font-family="MyriadPro-It, &apos;Myriad Pro&apos;" font-size="12" font-style="italic" isolation="isolate"><tspan x="0" y="0">t}}</tspan></text></g></g><g id="NECK_WIDTH_STS-2" isolation="isolate"><g isolation="isolate"><g isolation="isolate"><g isolation="isolate"><g isolation="isolate"><g isolation="isolate"><g isolation="isolate"><g isolation="isolate"><text transform="translate(163.66 43.29)" fill="#010101" font-family="ArialMT, Arial" font-size="12" isolation="isolate"><tspan x="0" y="0"></tspan></text></g></g></g></g></g></g></g></g></g><g id="markers"><polygon points="62.06 119.4 67.1 124.44 62.06 129.48 62.06 119.4" fill="#53682f"/><polygon points="200.85 130.2 195.81 125.15 200.85 120.11 200.85 130.2" fill="#53682f"/></g></svg>