<?xml version="1.0" encoding="UTF-8"?><svg id="Layer_1" xmlns="http://www.w3.org/2000/svg" viewBox="0 0 350 400"><path d="M292.801542,379.099448l-197.676422-28.318584v-192.920353s32.33369,7.964601,31.598833-36.283181V25.117147h105.819345c8.818283,79.646018,40.417116,91.150442,60.258244,89.380531v264.60177Z" fill="none" stroke="#000" stroke-linecap="round" stroke-linejoin="round" stroke-width="2"/><polyline points="178.742131 184.264367 178.742131 186.179101 176.827428 186.179101" fill="none" stroke="#000" stroke-linecap="round" stroke-linejoin="round" stroke-width="1.436043"/><line x1="173.868566" y1="186.179101" x2="99.404225" y2="186.179101" fill="none" stroke="#000" stroke-dasharray="3.945131 2.958848" stroke-linecap="round" stroke-linejoin="round" stroke-width="1.436043"/><polyline points="97.924794 186.179101 96.010076 186.179101 97.809499 185.524682" fill="none" stroke="#000" stroke-linecap="round" stroke-linejoin="round" stroke-width="1.436043"/><line x1="100.538228" y1="184.532281" x2="175.578343" y2="157.241234" fill="none" stroke="#000" stroke-dasharray="3.871454 2.903591" stroke-linecap="round" stroke-linejoin="round" stroke-width="1.436043"/><polyline points="176.942723 156.745019 178.742131 156.0906 178.742131 158.005334" fill="none" stroke="#000" stroke-linecap="round" stroke-linejoin="round" stroke-width="1.436043"/><line x1="178.742131" y1="160.546532" x2="178.742131" y2="182.993767" fill="none" stroke="#000" stroke-dasharray="3.388264 2.541198" stroke-linecap="round" stroke-linejoin="round" stroke-width="1.436043"/><line x1="97.475875" y1="348.236541" x2="290.598915" y2="348.13011" fill="none" stroke="#939598" stroke-dasharray="6 3" stroke-linecap="round" stroke-linejoin="round" stroke-width="1.3669"/><g id="datt-depth"><line x1="187.127931" y1="156.496425" x2="187.127931" y2="184.199977" fill="none" stroke="#000" stroke-linecap="round" stroke-linejoin="round" stroke-width="1.5"/><rect x="182.252931" y="155.746425" width="9.75" height="1.5"/><rect x="182.252931" y="183.449977" width="9.75" height="1.5"/></g><g id="dart-widtj"><line x1="176.566381" y1="195.204156" x2="99.650548" y2="195.204156" fill="none" stroke="#000" stroke-linecap="round" stroke-linejoin="round" stroke-width="1.5"/><rect x="175.816381" y="190.329156" width="1.5" height="9.75"/><rect x="98.900548" y="190.329156" width="1.5" height="9.75"/></g></svg>