<?xml version="1.0" encoding="UTF-8"?><svg id="new" xmlns="http://www.w3.org/2000/svg" viewBox="0 0 64 64"><rect x="2.53" y="2.53" width="59.41" height="59.41" rx="8.78" ry="8.78" fill="#52682d"/><line x1="11.43" y1="11.43" x2="11.43" y2="16.57" fill="none" stroke="#fff" stroke-linecap="round" stroke-width="1.87"/><line x1="15.93" y1="16.57" x2="11.43" y2="16.57" fill="none" stroke="#fff" stroke-linecap="round" stroke-width="1.87"/><line x1="15.93" y1="21.71" x2="15.93" y2="16.57" fill="none" stroke="#fff" stroke-linecap="round" stroke-width="1.87"/><line x1="20.43" y1="21.71" x2="15.93" y2="21.71" fill="none" stroke="#fff" stroke-linecap="round" stroke-width="1.87"/><line x1="20.43" y1="26.86" x2="20.43" y2="21.71" fill="none" stroke="#fff" stroke-linecap="round" stroke-width="1.87"/><line x1="24.93" y1="26.86" x2="20.43" y2="26.86" fill="none" stroke="#fff" stroke-linecap="round" stroke-width="1.87"/><line x1="24.93" y1="32" x2="24.93" y2="26.86" fill="none" stroke="#fff" stroke-linecap="round" stroke-width="1.87"/><line x1="29.43" y1="32" x2="24.93" y2="32" fill="none" stroke="#fff" stroke-linecap="round" stroke-width="1.87"/><line x1="29.43" y1="37.14" x2="29.43" y2="32" fill="none" stroke="#fff" stroke-linecap="round" stroke-width="1.87"/><line x1="33.93" y1="37.14" x2="29.43" y2="37.14" fill="none" stroke="#fff" stroke-linecap="round" stroke-width="1.87"/><line x1="33.93" y1="42.29" x2="33.93" y2="37.14" fill="none" stroke="#fff" stroke-linecap="round" stroke-width="1.87"/><line x1="38.43" y1="42.29" x2="33.93" y2="42.29" fill="none" stroke="#fff" stroke-linecap="round" stroke-width="1.87"/><line x1="38.43" y1="47.43" x2="38.43" y2="42.29" fill="none" stroke="#fff" stroke-linecap="round" stroke-width="1.87"/><line x1="42.93" y1="47.43" x2="38.43" y2="47.43" fill="none" stroke="#fff" stroke-linecap="round" stroke-width="1.87"/><line x1="42.93" y1="52.57" x2="42.93" y2="47.43" fill="none" stroke="#fff" stroke-linecap="round" stroke-width="1.87"/><line x1="52.57" y1="52.57" x2="42.93" y2="52.57" fill="none" stroke="#fff" stroke-linecap="round" stroke-width="1.87"/></svg>